<?xml version="1.0" encoding="UTF-8"?><svg id="a" xmlns="http://www.w3.org/2000/svg" viewBox="0 0 128.7 19.33"><g><path d="M2.42,16.39v1.24c0,.06,.01,.1,.04,.13,.03,.03,.07,.05,.14,.07v.09H1.42v-.09c.07-.02,.11-.04,.14-.07,.03-.03,.04-.07,.04-.13v-3.19c0-.06-.01-.1-.04-.13-.03-.03-.07-.05-.14-.07v-.09H3.78c.27,0,.49,.02,.65,.06,.16,.04,.3,.1,.43,.19,.13,.09,.23,.22,.3,.37,.07,.16,.11,.33,.11,.5,0,.25-.07,.48-.2,.67-.12,.16-.27,.28-.47,.35-.19,.07-.46,.1-.81,.1h-1.35Zm0-.62h1.26c.25,0,.43-.03,.53-.08,.06-.04,.12-.09,.16-.17s.06-.16,.06-.25-.02-.17-.06-.25c-.04-.08-.09-.13-.16-.17-.1-.05-.27-.08-.53-.08h-1.26v1Z"/><path d="M6.58,16.61v.75h1.96c.06,0,.1-.01,.13-.04s.05-.07,.07-.14h.08v.91h-.08c-.02-.06-.04-.11-.07-.14s-.08-.04-.13-.04h-2.88v-.08c.06-.02,.11-.04,.14-.07,.03-.03,.04-.08,.04-.13v-2.53c0-.06-.01-.1-.04-.13s-.07-.05-.14-.08v-.08h2.79c.06,0,.1-.01,.13-.04,.03-.03,.05-.07,.07-.14h.07v.91h-.07c-.02-.07-.04-.11-.07-.14-.03-.03-.08-.04-.13-.04h-1.88v.68h1.16c.06,0,.1-.01,.13-.04,.03-.03,.06-.07,.08-.14h.07v.89h-.07c-.02-.06-.04-.11-.07-.14s-.08-.04-.13-.04h-1.16Z"/><path d="M10.64,16.51l-.44,.36v.77c0,.06,.01,.1,.04,.13,.03,.03,.07,.05,.14,.08v.08h-1.09v-.08c.06-.02,.11-.04,.14-.07,.03-.03,.04-.08,.04-.13v-2.53c0-.06-.01-.1-.04-.13s-.07-.05-.14-.08v-.08h1.09v.08c-.07,.02-.11,.04-.14,.07-.03,.03-.04,.07-.04,.13v1.01l1.16-.93c.09-.07,.13-.13,.13-.18,0-.05-.05-.09-.16-.11v-.08h1.39v.08c-.07,.01-.13,.03-.18,.06s-.16,.13-.35,.29l-1.04,.83,1.14,1.32c.15,.17,.25,.28,.32,.33,.06,.05,.14,.08,.22,.1v.08h-1.35v-.08c.1-.02,.15-.06,.15-.11,0-.02,0-.04-.02-.05-.01-.02-.05-.07-.13-.15l-.85-1.01Z"/><path d="M14.07,15.11v2.52c0,.06,.01,.1,.04,.13,.03,.03,.07,.05,.14,.08v.08h-1.09v-.08c.06-.02,.11-.04,.14-.07,.03-.03,.04-.08,.04-.13v-2.53c0-.06-.01-.1-.04-.13s-.07-.05-.14-.08v-.08h1.09v.08c-.07,.02-.11,.04-.14,.07-.03,.03-.04,.07-.04,.13Z"/><path d="M15.64,15.88v1.75c0,.06,.01,.1,.04,.13,.03,.03,.07,.06,.14,.07v.08h-1.03v-.08c.06-.02,.11-.04,.14-.07,.03-.03,.04-.08,.04-.13v-2.53c0-.06-.01-.1-.04-.13s-.07-.05-.14-.08v-.08h1.19v.08c-.08,.02-.12,.06-.12,.11,0,.04,.03,.09,.09,.15l1.66,1.64v-1.7c0-.06-.01-.1-.04-.13s-.07-.05-.14-.07v-.08h1.03v.08c-.07,.02-.11,.04-.14,.07-.03,.03-.04,.07-.04,.13v2.52c0,.06,.01,.1,.04,.13,.03,.03,.07,.05,.14,.08v.08h-1.11v-.08c.08-.02,.12-.05,.12-.1,0-.03-.01-.05-.03-.08-.02-.03-.07-.08-.15-.16l-1.64-1.62Z"/><path d="M21.78,16.73h-.7c-.06,0-.1,.01-.13,.04-.03,.03-.05,.07-.07,.14h-.07v-.82h.07c.02,.07,.04,.11,.07,.14,.03,.03,.08,.04,.13,.04h1.47v.08c-.06,.02-.11,.05-.14,.08-.03,.04-.04,.08-.04,.15v.65c0,.06,.01,.1,.04,.13,.03,.03,.07,.06,.14,.07v.06c-.6,.33-1.19,.49-1.78,.49-.51,0-.93-.12-1.24-.36-.17-.13-.31-.3-.41-.49-.12-.23-.19-.48-.19-.74,0-.36,.11-.69,.34-.97,.35-.44,.87-.66,1.55-.66,.3,0,.64,.07,1.03,.2,.15,.05,.24,.08,.27,.08,.03,0,.07-.01,.11-.04l.07,.04-.37,.78-.07-.03v-.02c0-.07-.07-.14-.2-.21-.25-.13-.52-.2-.81-.2-.33,0-.61,.09-.82,.27-.22,.19-.34,.45-.34,.77,0,.3,.1,.55,.31,.73,.21,.19,.5,.28,.88,.28s.67-.07,.91-.2v-.47Z"/><path d="M28.38,14.44v2.11c0,.4-.07,.7-.22,.9-.27,.36-.81,.54-1.64,.54-.6,0-1.06-.1-1.38-.29-.19-.11-.31-.26-.39-.46-.07-.19-.1-.42-.1-.68v-2.11c0-.06-.01-.1-.04-.13s-.07-.05-.14-.07v-.09h1.18v.09c-.06,.02-.11,.04-.14,.07-.03,.03-.04,.07-.04,.13v1.88c0,.22,.01,.38,.04,.48,.02,.1,.07,.19,.14,.26,.18,.19,.48,.28,.9,.28s.73-.09,.91-.28c.06-.07,.11-.16,.13-.26,.02-.1,.04-.26,.04-.48v-1.88c0-.06-.01-.1-.04-.13-.03-.03-.07-.05-.14-.07v-.09h1.11v.09c-.07,.02-.11,.04-.14,.07s-.04,.07-.04,.13Z"/><path d="M29.92,15.88v1.75c0,.06,.01,.1,.04,.13,.03,.03,.07,.06,.14,.07v.08h-1.03v-.08c.06-.02,.11-.04,.14-.07,.03-.03,.04-.08,.04-.13v-2.53c0-.06-.01-.1-.04-.13s-.07-.05-.14-.08v-.08h1.19v.08c-.08,.02-.12,.06-.12,.11,0,.04,.03,.09,.09,.15l1.66,1.64v-1.7c0-.06-.01-.1-.04-.13s-.07-.05-.14-.07v-.08h1.03v.08c-.07,.02-.11,.04-.14,.07-.03,.03-.04,.07-.04,.13v2.52c0,.06,.01,.1,.04,.13,.03,.03,.07,.05,.14,.08v.08h-1.11v-.08c.08-.02,.12-.05,.12-.1,0-.03-.01-.05-.03-.08-.02-.03-.07-.08-.15-.16l-1.64-1.62Z"/><path d="M34.19,15.11v2.52c0,.06,.01,.1,.04,.13,.03,.03,.07,.05,.14,.08v.08h-1.09v-.08c.06-.02,.11-.04,.14-.07,.03-.03,.04-.08,.04-.13v-2.53c0-.06-.01-.1-.04-.13s-.07-.05-.14-.08v-.08h1.09v.08c-.07,.02-.11,.04-.14,.07-.03,.03-.04,.07-.04,.13Z"/><path d="M36.5,16.94l.75-1.63c.04-.09,.07-.16,.07-.21,0-.09-.06-.16-.18-.19v-.08h1.19v.08c-.07,.02-.13,.05-.16,.09s-.08,.11-.13,.21l-1.08,2.28c-.04,.08-.06,.14-.06,.18,0,.09,.06,.15,.18,.17v.07h-1.21v-.07c.12-.02,.18-.08,.18-.17,0-.04-.02-.1-.06-.18l-1.08-2.28c-.05-.11-.09-.18-.13-.22-.03-.03-.09-.06-.16-.09v-.08h1.24v.08c-.12,.04-.18,.1-.18,.19,0,.04,.02,.11,.07,.21l.74,1.63Z"/><path d="M39.56,16.61v.75h1.96c.06,0,.1-.01,.13-.04s.05-.07,.07-.14h.08v.91h-.08c-.02-.06-.04-.11-.07-.14s-.08-.04-.13-.04h-2.88v-.08c.06-.02,.11-.04,.14-.07,.03-.03,.04-.08,.04-.13v-2.53c0-.06-.01-.1-.04-.13s-.07-.05-.14-.08v-.08h2.79c.06,0,.1-.01,.13-.04,.03-.03,.05-.07,.07-.14h.07v.91h-.07c-.02-.07-.04-.11-.07-.14-.03-.03-.08-.04-.13-.04h-1.88v.68h1.16c.06,0,.1-.01,.13-.04,.03-.03,.06-.07,.08-.14h.07v.89h-.07c-.02-.06-.04-.11-.07-.14s-.08-.04-.13-.04h-1.16Z"/><path d="M43.19,16.65v.99c0,.06,.01,.1,.04,.13,.03,.03,.07,.05,.14,.08v.08h-1.09v-.08c.06-.02,.11-.04,.14-.07,.03-.03,.04-.08,.04-.13v-2.53c0-.06-.01-.1-.04-.13s-.07-.05-.14-.08v-.08h2.02c.26,0,.46,.01,.6,.04,.14,.03,.26,.08,.37,.15,.22,.14,.33,.38,.33,.71,0,.25-.07,.45-.21,.59-.14,.14-.36,.24-.66,.3l.58,.81c.11,.15,.19,.25,.26,.31,.06,.05,.14,.09,.22,.1v.08h-1.3v-.08c.1-.03,.14-.07,.14-.12,0-.04-.03-.1-.09-.18l-.62-.88h-.74Zm0-.56h1.11c.17,0,.29-.02,.38-.05,.11-.05,.17-.15,.17-.3,0-.13-.04-.22-.12-.27s-.22-.08-.43-.08h-1.11v.7Z"/><path d="M49.07,15.11l-.37,.72-.07-.04c0-.06-.02-.11-.06-.14-.1-.09-.26-.17-.46-.23-.2-.06-.41-.09-.62-.09-.18,0-.34,.02-.47,.07-.2,.07-.3,.18-.3,.31,0,.09,.05,.15,.14,.19,.1,.04,.28,.07,.55,.09l.44,.03c.38,.03,.67,.1,.87,.22,.11,.07,.2,.15,.27,.26,.09,.14,.13,.29,.13,.47,0,.31-.14,.56-.42,.75-.27,.17-.64,.26-1.1,.26s-.92-.1-1.35-.29c-.03-.01-.05-.02-.07-.02-.04,0-.07,.02-.1,.07l-.07-.03,.32-.76,.07,.03v.02s.02,.09,.06,.12c.09,.08,.25,.15,.48,.21,.23,.06,.45,.09,.67,.09,.2,0,.37-.03,.52-.08,.19-.06,.29-.16,.29-.3,0-.11-.07-.19-.2-.23-.09-.03-.25-.05-.48-.08l-.43-.04c-.23-.02-.41-.04-.54-.07s-.23-.07-.32-.13c-.12-.07-.21-.17-.28-.3s-.1-.27-.1-.42c0-.34,.15-.6,.44-.78,.27-.16,.59-.24,.98-.24,.21,0,.41,.02,.59,.07,.18,.05,.4,.13,.65,.25,.08,.04,.13,.05,.16,.05s.07-.02,.11-.06l.07,.04Z"/><path d="M50.49,15.11v2.52c0,.06,.01,.1,.04,.13,.03,.03,.07,.05,.14,.08v.08h-1.09v-.08c.06-.02,.11-.04,.14-.07,.03-.03,.04-.08,.04-.13v-2.53c0-.06-.01-.1-.04-.13s-.07-.05-.14-.08v-.08h1.09v.08c-.07,.02-.11,.04-.14,.07-.03,.03-.04,.07-.04,.13Z"/><path d="M52.91,15.39v2.25c0,.06,.01,.1,.04,.13,.03,.03,.07,.05,.14,.08v.08h-1.09v-.08c.06-.02,.11-.04,.14-.07,.03-.03,.04-.08,.04-.13v-2.25h-.91c-.06,0-.1,.01-.13,.04s-.05,.07-.07,.14h-.07v-.91h.07c.02,.06,.04,.11,.07,.14,.03,.03,.08,.04,.13,.04h2.56c.06,0,.1-.01,.13-.04,.03-.03,.05-.07,.07-.14h.07v.91h-.07c-.02-.07-.04-.11-.07-.14s-.08-.04-.13-.04h-.91Z"/><path d="M56.21,16.56v1.07c0,.06,.01,.1,.04,.13,.03,.03,.07,.06,.14,.08v.07h-1.09v-.07c.07-.02,.11-.04,.14-.07s.04-.08,.04-.13v-1.07l-.92-1.26c-.1-.14-.19-.24-.25-.29s-.13-.09-.22-.11v-.08h1.39v.08c-.12,.03-.18,.09-.18,.17,0,.04,.04,.12,.13,.24l.45,.62,.44-.62c.09-.12,.13-.21,.13-.25,0-.08-.06-.13-.18-.17v-.08s1.32,0,1.32,0v.08c-.08,.02-.16,.05-.22,.11s-.14,.15-.25,.29l-.92,1.26Z"/><path d="M61.36,14.09c.66,0,1.18,.18,1.56,.53,.41,.37,.61,.85,.61,1.44,0,.36-.1,.7-.29,1.01-.38,.61-1.01,.92-1.87,.92-.65,0-1.17-.18-1.55-.53-.21-.19-.36-.42-.47-.68-.09-.23-.14-.48-.14-.74,0-.38,.1-.72,.29-1.04,.37-.6,.99-.9,1.87-.91Zm0,.64c-.36,0-.66,.11-.9,.32-.28,.25-.43,.58-.43,.99s.14,.74,.43,.99c.24,.21,.54,.32,.9,.32s.66-.11,.9-.32c.14-.13,.25-.28,.33-.47,.07-.16,.1-.33,.1-.51,0-.43-.14-.76-.43-1.01-.24-.21-.54-.32-.91-.32Z"/><path d="M64.97,16.65v.99c0,.06,.01,.1,.04,.13,.03,.03,.07,.05,.14,.08v.08h-1.09v-.08c.06-.02,.11-.04,.14-.07,.03-.03,.04-.08,.04-.13v-2.53c0-.06-.01-.1-.04-.13s-.07-.05-.14-.08v-.08h2.01c.4,0,.7,.06,.9,.18,.12,.07,.21,.17,.28,.3,.07,.13,.1,.27,.1,.43,0,.31-.1,.54-.31,.69-.21,.15-.53,.22-.96,.22h-1.1Zm0-.56h1.05c.19,0,.33-.02,.4-.05,.11-.05,.17-.15,.17-.3s-.05-.24-.17-.29c-.07-.04-.21-.05-.4-.05h-1.05v.7Z"/><path d="M68.65,16.61v.75h1.96c.06,0,.1-.01,.13-.04s.05-.07,.07-.14h.08v.91h-.08c-.02-.06-.04-.11-.07-.14s-.08-.04-.13-.04h-2.88v-.08c.06-.02,.11-.04,.14-.07s.04-.08,.04-.13v-2.53c0-.06-.01-.1-.04-.13-.03-.03-.07-.05-.14-.08v-.08h2.79c.06,0,.1-.01,.13-.04,.03-.03,.05-.07,.07-.14h.07v.91h-.07c-.02-.07-.04-.11-.07-.14s-.08-.04-.13-.04h-1.88v.68h1.16c.06,0,.1-.01,.13-.04,.03-.03,.06-.07,.08-.14h.07v.89h-.07c-.02-.06-.04-.11-.07-.14s-.08-.04-.13-.04h-1.16Z"/><path d="M72.21,15.88v1.75c0,.06,.01,.1,.04,.13s.07,.06,.14,.07v.08h-1.03v-.08c.06-.02,.11-.04,.14-.07s.04-.08,.04-.13v-2.53c0-.06-.01-.1-.04-.13-.03-.03-.07-.05-.14-.08v-.08h1.19v.08c-.08,.02-.12,.06-.12,.11,0,.04,.03,.09,.09,.15l1.66,1.64v-1.7c0-.06-.01-.1-.04-.13-.03-.03-.07-.05-.14-.07v-.08h1.03v.08c-.07,.02-.11,.04-.14,.07-.03,.03-.04,.07-.04,.13v2.52c0,.06,.01,.1,.04,.13,.03,.03,.07,.05,.14,.08v.08h-1.11v-.08c.08-.02,.12-.05,.12-.1,0-.03-.01-.05-.03-.08s-.07-.08-.15-.16l-1.64-1.62Z"/><path d="M80.55,14.47l-.45,.89-.08-.04s0-.03,0-.04c0-.06-.05-.13-.16-.2-.33-.23-.71-.34-1.15-.34-.2,0-.37,.02-.52,.07-.11,.04-.2,.09-.26,.17-.07,.07-.1,.15-.1,.24,0,.14,.08,.24,.26,.29,.09,.03,.28,.05,.57,.08l.43,.04c.26,.03,.47,.07,.62,.11s.3,.11,.42,.2c.12,.09,.22,.21,.3,.36,.07,.15,.11,.3,.11,.47,0,.26-.09,.5-.26,.71-.15,.19-.39,.33-.72,.42-.24,.07-.5,.1-.78,.1-.5,0-.99-.12-1.48-.36-.1-.05-.17-.07-.18-.07-.02,0-.06,.02-.11,.06l-.08-.04,.41-.92,.08,.04v.04c0,.08,.04,.16,.12,.23,.12,.11,.3,.2,.55,.28s.49,.12,.71,.12c.25,0,.45-.04,.63-.12,.1-.05,.17-.11,.23-.18,.06-.08,.08-.16,.08-.24,0-.12-.07-.21-.2-.27-.09-.04-.28-.07-.57-.1l-.42-.04c-.29-.03-.49-.06-.6-.08-.12-.03-.24-.07-.35-.13-.17-.08-.3-.21-.39-.37-.09-.15-.13-.32-.13-.51,0-.32,.11-.58,.33-.79,.29-.27,.72-.41,1.29-.41,.24,0,.47,.02,.67,.07,.21,.05,.47,.14,.78,.27,.11,.04,.17,.06,.2,.06,.04,0,.08-.02,.13-.06l.08,.04Z"/><path d="M82.78,14.76c.49,0,.9,.13,1.23,.38,.39,.3,.59,.72,.59,1.26,0,.51-.2,.91-.59,1.21-.32,.25-.73,.38-1.22,.38s-.9-.12-1.22-.38c-.39-.3-.59-.71-.59-1.24s.2-.94,.59-1.24c.33-.25,.73-.37,1.22-.38Zm0,.58c-.32,0-.58,.1-.78,.31-.19,.19-.28,.43-.28,.72s.09,.53,.28,.72c.2,.21,.46,.31,.78,.31s.58-.1,.78-.31c.19-.19,.28-.42,.28-.7,0-.3-.09-.55-.28-.73-.2-.2-.46-.3-.78-.31Z"/><path d="M88.31,15.11v1.64c0,.37-.07,.65-.22,.82-.24,.28-.68,.42-1.34,.42-.44,0-.79-.07-1.06-.2-.2-.1-.33-.24-.4-.42-.07-.17-.1-.37-.1-.62v-1.64c0-.06-.01-.1-.04-.13-.03-.03-.07-.05-.14-.08v-.08h1.09v.08c-.07,.02-.11,.04-.14,.07s-.04,.07-.04,.13v1.49c0,.17,.02,.31,.05,.4s.08,.17,.16,.23c.15,.12,.37,.18,.65,.18s.5-.06,.65-.18c.07-.06,.13-.13,.16-.23s.04-.22,.04-.4v-1.49c0-.06-.01-.1-.04-.13-.03-.03-.07-.05-.14-.08v-.08h1.03v.08c-.07,.02-.11,.04-.14,.07-.03,.03-.04,.07-.04,.13Z"/><path d="M89.89,16.65v.99c0,.06,.01,.1,.04,.13,.03,.03,.07,.05,.14,.08v.08h-1.09v-.08c.06-.02,.11-.04,.14-.07s.04-.08,.04-.13v-2.53c0-.06-.01-.1-.04-.13-.03-.03-.07-.05-.14-.08v-.08h2.03c.26,0,.46,.01,.6,.04,.14,.03,.26,.08,.37,.15,.22,.14,.33,.38,.33,.71,0,.25-.07,.45-.21,.59-.14,.14-.36,.24-.66,.3l.58,.81c.11,.15,.19,.25,.25,.31,.06,.05,.14,.09,.22,.1v.08h-1.3v-.08c.1-.03,.14-.07,.14-.12,0-.04-.03-.1-.09-.18l-.62-.88h-.74Zm0-.56h1.11c.17,0,.29-.02,.38-.05,.11-.05,.17-.15,.17-.3,0-.13-.04-.22-.12-.27s-.22-.08-.43-.08h-1.11v.7Z"/><path d="M95.81,16.81l.47,.68-.06,.05s-.08-.05-.1-.05c-.03,0-.1,.03-.22,.1-.25,.15-.47,.25-.67,.31-.19,.06-.42,.09-.67,.09-.5,0-.92-.12-1.23-.36-.18-.14-.32-.31-.43-.52-.11-.22-.17-.47-.17-.73,0-.36,.11-.68,.32-.96,.33-.43,.83-.65,1.51-.65,.25,0,.48,.03,.67,.09,.2,.06,.42,.16,.67,.31,.11,.07,.19,.1,.22,.1,.03,0,.06-.02,.1-.05l.06,.05-.47,.68-.06-.04s0-.04,0-.04c0-.02,0-.03,0-.04,0-.09-.12-.19-.37-.3-.24-.11-.47-.16-.71-.16-.33,0-.61,.09-.83,.26-.25,.2-.37,.45-.37,.76s.12,.57,.37,.76c.22,.17,.5,.26,.83,.26,.26,0,.52-.07,.78-.2,.2-.1,.3-.19,.3-.27,0,0,0-.03,0-.08l.06-.05Z"/><path d="M97.64,16.61v.75h1.96c.06,0,.1-.01,.13-.04s.05-.07,.07-.14h.08v.91h-.08c-.02-.06-.04-.11-.07-.14s-.08-.04-.13-.04h-2.88v-.08c.06-.02,.11-.04,.14-.07,.03-.03,.04-.08,.04-.13v-2.53c0-.06-.01-.1-.04-.13-.03-.03-.07-.05-.14-.08v-.08h2.79c.06,0,.1-.01,.13-.04,.03-.03,.05-.07,.07-.14h.08v.91h-.08c-.02-.07-.04-.11-.07-.14-.03-.03-.08-.04-.13-.04h-1.88v.68h1.16c.06,0,.1-.01,.13-.04,.03-.03,.06-.07,.08-.14h.07v.89h-.07c-.02-.06-.04-.11-.07-.14s-.08-.04-.13-.04h-1.16Z"/><path d="M104.15,17.92l-1.39-2.6v2.31c0,.06,.01,.1,.04,.13,.03,.03,.07,.05,.14,.07v.09h-1.11v-.09c.07-.02,.11-.04,.14-.07,.03-.03,.04-.07,.04-.13v-3.19c0-.06-.01-.1-.04-.13-.03-.03-.07-.05-.14-.07v-.09h1.45v.09c-.09,.02-.13,.07-.13,.15,0,.04,.01,.08,.04,.13l1.03,1.95,1.04-1.91c.05-.08,.07-.15,.07-.19,0-.08-.05-.12-.14-.13v-.09h1.42v.09c-.07,.02-.11,.04-.14,.07-.03,.03-.04,.07-.04,.13v3.19c0,.06,.01,.1,.04,.13,.03,.03,.07,.05,.14,.07v.09h-1.17v-.09c.06-.02,.11-.04,.14-.07,.03-.03,.04-.07,.04-.13v-2.31l-1.47,2.6Z"/><path d="M108.14,15.11v2.52c0,.06,.01,.1,.04,.13,.03,.03,.07,.05,.14,.08v.08h-1.09v-.08c.06-.02,.11-.04,.14-.07,.03-.03,.04-.08,.04-.13v-2.53c0-.06-.01-.1-.04-.13s-.07-.05-.14-.08v-.08h1.09v.08c-.07,.02-.11,.04-.14,.07-.03,.03-.04,.07-.04,.13Z"/><path d="M109.77,16.65v.99c0,.06,.01,.1,.04,.13,.03,.03,.07,.05,.14,.08v.08h-1.09v-.08c.06-.02,.11-.04,.14-.07,.03-.03,.04-.08,.04-.13v-2.53c0-.06-.01-.1-.04-.13s-.07-.05-.14-.08v-.08h2.02c.26,0,.46,.01,.6,.04,.14,.03,.26,.08,.37,.15,.22,.14,.33,.38,.33,.71,0,.25-.07,.45-.21,.59s-.36,.24-.66,.3l.58,.81c.11,.15,.19,.25,.25,.31,.06,.05,.14,.09,.22,.1v.08h-1.3v-.08c.1-.03,.14-.07,.14-.12,0-.04-.03-.1-.09-.18l-.62-.88h-.74Zm0-.56h1.11c.17,0,.29-.02,.38-.05,.11-.05,.17-.15,.17-.3,0-.13-.04-.22-.12-.27-.08-.05-.22-.08-.43-.08h-1.11v.7Z"/><path d="M113.66,16.65v.99c0,.06,.01,.1,.04,.13,.03,.03,.07,.05,.14,.08v.08h-1.09v-.08c.06-.02,.11-.04,.14-.07,.03-.03,.04-.08,.04-.13v-2.53c0-.06-.01-.1-.04-.13s-.07-.05-.14-.08v-.08h2.02c.26,0,.46,.01,.6,.04,.14,.03,.26,.08,.37,.15,.22,.14,.33,.38,.33,.71,0,.25-.07,.45-.21,.59s-.36,.24-.66,.3l.58,.81c.11,.15,.19,.25,.25,.31,.06,.05,.14,.09,.22,.1v.08h-1.3v-.08c.1-.03,.14-.07,.14-.12,0-.04-.03-.1-.09-.18l-.62-.88h-.74Zm0-.56h1.11c.17,0,.29-.02,.38-.05,.11-.05,.17-.15,.17-.3,0-.13-.04-.22-.12-.27-.08-.05-.22-.08-.43-.08h-1.11v.7Z"/><path d="M118.29,14.76c.49,0,.9,.13,1.23,.38,.39,.3,.59,.72,.59,1.26,0,.51-.2,.91-.59,1.21-.32,.25-.73,.38-1.22,.38s-.9-.12-1.22-.38c-.39-.3-.59-.71-.59-1.24s.2-.94,.59-1.24c.33-.25,.73-.37,1.22-.38Zm0,.58c-.32,0-.58,.1-.78,.31-.19,.19-.28,.43-.28,.72s.09,.53,.28,.72c.2,.21,.46,.31,.78,.31s.58-.1,.78-.31c.19-.19,.28-.42,.28-.7,0-.3-.09-.55-.28-.73-.2-.2-.46-.3-.78-.31Z"/><path d="M121.5,16.65v.99c0,.06,.01,.1,.04,.13,.03,.03,.07,.05,.14,.08v.08h-1.09v-.08c.06-.02,.11-.04,.14-.07,.03-.03,.04-.08,.04-.13v-2.53c0-.06-.01-.1-.04-.13s-.07-.05-.14-.08v-.08h2.02c.26,0,.46,.01,.6,.04,.14,.03,.26,.08,.37,.15,.22,.14,.33,.38,.33,.71,0,.25-.07,.45-.21,.59s-.36,.24-.66,.3l.58,.81c.11,.15,.19,.25,.25,.31,.06,.05,.14,.09,.22,.1v.08h-1.3v-.08c.1-.03,.14-.07,.14-.12,0-.04-.03-.1-.09-.18l-.62-.88h-.74Zm0-.56h1.11c.17,0,.29-.02,.38-.05,.11-.05,.17-.15,.17-.3,0-.13-.04-.22-.12-.27-.08-.05-.22-.08-.43-.08h-1.11v.7Z"/><path d="M127.38,15.11l-.37,.72-.07-.04c0-.06-.02-.11-.06-.14-.1-.09-.26-.17-.46-.23s-.41-.09-.62-.09c-.18,0-.34,.02-.47,.07-.2,.07-.3,.18-.3,.31,0,.09,.05,.15,.14,.19,.09,.04,.28,.07,.55,.09l.44,.03c.38,.03,.67,.1,.87,.22,.11,.07,.2,.15,.27,.26,.09,.14,.14,.29,.14,.47,0,.31-.14,.56-.42,.75-.27,.17-.64,.26-1.1,.26s-.92-.1-1.35-.29c-.03-.01-.05-.02-.07-.02-.04,0-.07,.02-.1,.07l-.07-.03,.32-.76,.07,.03v.02s.02,.09,.05,.12c.09,.08,.25,.15,.48,.21,.23,.06,.45,.09,.67,.09,.19,0,.37-.03,.52-.08,.19-.06,.29-.16,.29-.3,0-.11-.07-.19-.2-.23-.09-.03-.25-.05-.48-.08l-.43-.04c-.23-.02-.41-.04-.54-.07-.12-.03-.23-.07-.32-.13-.12-.07-.21-.17-.28-.3-.07-.13-.1-.27-.1-.42,0-.34,.15-.6,.44-.78,.26-.16,.59-.24,.98-.24,.21,0,.41,.02,.59,.07,.18,.05,.4,.13,.66,.25,.08,.04,.13,.05,.16,.05s.07-.02,.11-.06l.07,.04Z"/></g><g><path d="M3.98,4.16V1.83c0-.24-.02-.56-.05-.96h.96c-.03,.4-.05,.73-.05,1.01v7.63c0,.34,.01,.81,.05,1.42h-.96c.03-.61,.05-1.19,.05-1.74-.64,.15-1.22,.31-1.74,.48-.52,.17-.9,.33-1.14,.48-.15-.33-.34-.67-.55-1.01,.33-.03,.88-.14,1.65-.32,.76-.18,1.36-.33,1.78-.46v-3.43h-1.65c-.37,0-.78,.02-1.23,.05v-.87c.46,.03,.87,.05,1.23,.05h1.65ZM7.45,1.78v3.11c1.07-.49,2-1.08,2.79-1.78,.18,.3,.43,.59,.73,.87-.34,.15-.87,.42-1.6,.8-.73,.38-1.37,.69-1.92,.94v3.43c0,.49,.23,.75,.69,.78h1.14c.3,.03,.52-.02,.64-.16,.12-.14,.24-.53,.37-1.17,.24,.24,.59,.4,1.05,.46-.24,.64-.46,1.07-.66,1.3-.2,.23-.48,.34-.85,.34h-2.01c-.85,0-1.26-.46-1.23-1.37V1.78c0-.3-.02-.61-.05-.91h.96c-.03,.31-.05,.61-.05,.91Z"/><path d="M18.33,2.01h2.51c.7,0,1.31-.01,1.83-.05v.87c-.52-.03-1.13-.05-1.83-.05h-6.54c-.58,0-1.19,.02-1.83,.05v-.87c.61,.03,1.22,.05,1.83,.05h2.93c-.09-.27-.31-.69-.64-1.23,.37-.12,.65-.24,.87-.37,.3,.49,.59,1.02,.87,1.6Zm-5.07,8.64c-.24-.27-.49-.52-.73-.73,1.28-.94,2.18-1.8,2.7-2.56,.21,.27,.46,.52,.73,.73-.55,.55-1.45,1.4-2.7,2.56Zm7.72-5.12c0,.67,.02,1.19,.05,1.55h-2.88v2.79c0,.52-.14,.85-.41,1.01-.27,.15-.79,.27-1.55,.37-.09-.37-.24-.7-.46-1.01,.67,.03,1.09,.02,1.26-.05,.17-.06,.25-.27,.25-.64v-2.47h-3.02c.03-.52,.05-1.1,.05-1.74s-.02-1.17-.05-1.6h6.81c-.03,.49-.05,1.08-.05,1.78Zm-.91,.78v-1.78h-4.89v1.78h4.89Zm1.35,2.54c.47,.38,.83,.69,1.07,.94-.24,.24-.49,.5-.73,.78-.43-.49-1.3-1.25-2.6-2.29,.18-.21,.38-.46,.59-.73,.64,.49,1.2,.92,1.67,1.3Z"/><path d="M28.7,3.84c.03-1.07,.04-1.78,.02-2.15-.02-.37-.04-.72-.07-1.05,.37,.06,.78,.11,1.23,.14-.09,.31-.16,.75-.21,1.33-.05,.58-.07,1.16-.07,1.74h2.33c.82,0,1.58-.03,2.29-.09v1.01c-.61-.03-1.23-.05-1.87-.05h-2.7c.12,.52,.33,1.04,.64,1.58,.3,.53,.62,1.01,.94,1.42,.32,.41,.76,.85,1.33,1.3,.56,.46,1.18,.84,1.85,1.14-.24,.18-.49,.49-.73,.91-.55-.3-1.09-.69-1.62-1.14-.53-.46-1.07-1.06-1.6-1.81-.53-.75-.94-1.44-1.21-2.08-.24,.67-.5,1.23-.78,1.67-.27,.44-.57,.85-.89,1.21-.32,.37-.73,.73-1.23,1.1-.5,.37-1.07,.73-1.71,1.1-.24-.37-.52-.69-.82-.96,.64-.21,1.27-.52,1.9-.91,.62-.4,1.13-.85,1.53-1.35s.72-1.03,.96-1.58c.24-.55,.4-1.08,.46-1.6h-2.51c-.73,0-1.31,.02-1.74,.05v-1.01c.43,.03,1.01,.06,1.74,.09h2.56Z"/><path d="M44.01,5.16v.96c-.43,.09-.82,.24-1.17,.43-.35,.2-.75,.4-1.21,.62v.41h2.88c.37,0,.84-.02,1.42-.05v.91c-.61-.03-1.08-.05-1.42-.05h-2.88v1.87c0,.43-.17,.69-.5,.8-.34,.11-.88,.19-1.65,.25-.09-.34-.24-.67-.46-1.01h1.23c.3,0,.46-.17,.46-.5v-1.42h-3.15c-.49,0-1.04,.02-1.65,.05v-.91c.64,.03,1.17,.05,1.6,.05h3.2c0-.24-.03-.52-.09-.82l1.65-.82h-2.51c-.58,0-1.23,.02-1.97,.05v-.87c.67,.03,1.31,.05,1.92,.05h4.3Zm-.69-2.06h2.51c-.03,.27-.05,.59-.05,.96s.02,.72,.05,1.05h-.96v-1.23h-7.91v1.28h-.96c.03-.37,.05-.73,.05-1.1s-.02-.69-.05-.96h6.35c.24-.43,.5-.88,.75-1.35,.26-.47,.46-.94,.62-1.39,.49,.27,.87,.47,1.14,.59-.61,.7-1.13,1.42-1.55,2.15Zm-4.52-.87c-.34,.24-.59,.47-.78,.69-.4-.58-.85-1.08-1.37-1.51,.33-.24,.58-.44,.73-.59,.55,.46,1.02,.93,1.42,1.42Zm2.83-.14c-.27,.21-.56,.41-.87,.59-.24-.49-.61-1.04-1.1-1.65,.3-.21,.58-.4,.82-.55,.58,.73,.96,1.26,1.14,1.6Z"/><path d="M48.26,1.97v-.91c.76,.03,1.46,.05,2.1,.05h4.94c.61,0,1.26-.01,1.96-.05v.91c-.67-.03-1.42-.05-2.24-.05v3.38h.87c.61,0,1.26-.02,1.97-.05v.91c-.7-.06-1.36-.09-1.97-.09h-.87v2.47c0,.76,.02,1.61,.05,2.56h-1.05c.03-.94,.05-1.8,.05-2.56v-2.47h-2.29c-.09,.58-.21,1.12-.37,1.62-.15,.5-.4,1.01-.73,1.53-.34,.52-.96,1.14-1.87,1.87-.24-.27-.61-.53-1.1-.78,.61-.24,1.13-.59,1.58-1.03s.79-.96,1.05-1.55c.26-.59,.4-1.15,.43-1.67h-1.05c-.79,0-1.55,.05-2.29,.14v-.96c.76,.03,1.52,.05,2.29,.05h1.1V1.92c-.91,0-1.77,.02-2.56,.05Zm5.8,3.34V1.92h-2.29v3.38h2.29Z"/><path d="M60.6,9c-.27,.85-.47,1.48-.59,1.87-.27-.21-.62-.41-1.05-.59,.18-.24,.43-.74,.73-1.49,.3-.75,.56-1.61,.78-2.58,.3,.24,.59,.44,.87,.59-.21,.61-.46,1.34-.73,2.19Zm-.55-4.3l-1.01-.55c.12-.21,.26-.46,.41-.73,.27,.15,.6,.33,.98,.53,.38,.2,.72,.39,1.03,.57l-.55,.82c-.24-.24-.53-.46-.87-.64Zm-.55-3.38c.18-.21,.38-.43,.59-.64,.82,.64,1.37,1.11,1.65,1.42-.21,.21-.43,.44-.64,.69-.55-.61-1.08-1.1-1.6-1.46Zm2.15,7.75c.21-.47,.37-1.03,.48-1.67,.11-.64,.17-1.3,.18-1.99,.01-.69,.02-1.42,.02-2.22s-.02-1.57-.05-2.24h5.21c.7,0,1.37-.02,2.01-.05v.87c-.64-.03-1.31-.05-2.01-.05h-4.3v3.06c0,.73-.02,1.39-.07,1.99-.05,.59-.15,1.17-.32,1.74-.17,.56-.36,1.05-.57,1.46-.21,.41-.47,.81-.78,1.21-.15-.3-.41-.58-.78-.82,.43-.4,.75-.83,.96-1.3Zm1.78,.23c.27-.38,.55-.83,.82-1.35,.21,.21,.52,.41,.91,.59-.3,.27-.58,.6-.82,.98-.24,.38-.55,.8-.91,1.26-.27-.21-.53-.4-.78-.55,.24-.24,.5-.56,.78-.94Zm2.79-6.19h2.61c-.03,.46-.05,.91-.05,1.37v1.14c0,.34,.01,.81,.05,1.42h-1.97v3.06c0,.37-.11,.65-.34,.85-.23,.2-.59,.33-1.07,.39-.09-.34-.23-.67-.41-1.01,.64,.09,.96-.06,.96-.46v-2.83h-1.92c.03-.49,.04-.94,.04-1.37v-1.23c0-.4-.02-.84-.04-1.33h1.23c.12-.27,.24-.65,.37-1.14,.3,.09,.64,.17,1,.23-.15,.24-.3,.55-.46,.91Zm1.69,1.65v-.91h-2.93v.91h2.93Zm0,1.55v-.82h-2.93v.82h2.93Zm1.87,3.56c-.27,.21-.52,.43-.73,.64-.24-.34-.47-.65-.69-.94-.21-.29-.5-.63-.87-1.03,.21-.15,.44-.33,.69-.55,.85,.94,1.39,1.57,1.6,1.87Z"/><path d="M74.09,8.55c0,1.25,.01,2.15,.05,2.7h-.91c.03-.76,.05-1.61,.05-2.56-1.07,.18-1.78,.32-2.15,.41-.09-.37-.21-.65-.37-.87,.46-.03,1.29-.12,2.51-.27v-1.65c-.88,.03-1.57,.09-2.06,.18l-.37-.82c.27-.15,.53-.52,.78-1.1,.24-.58,.44-1.14,.59-1.69-.43,0-.88,.02-1.37,.05v-.78c.55,.03,1.07,.05,1.55,.05,.18-.61,.3-1.2,.37-1.78,.37,.15,.72,.26,1.05,.32-.12,.15-.3,.64-.55,1.46h.59c.64,0,1.23-.02,1.78-.05v.78c-.55-.03-1.13-.05-1.74-.05h-.82c-.49,1.43-.82,2.35-1,2.74h1.19c0-.7-.02-1.28-.05-1.74h.96c-.06,.4-.09,.98-.09,1.74h1.83v.69h-1.83v1.51c.76-.09,1.37-.18,1.83-.27-.03,.24-.05,.5-.05,.78-.33,.03-.93,.11-1.78,.23Zm2.4,.39c.47-.65,.8-1.39,.98-2.19,.18-.81,.24-1.61,.18-2.4,.27,.06,.61,.09,1.01,.09-.06,.67-.08,1.23-.05,1.69s.14,.94,.34,1.46,.5,.99,.89,1.42c.4,.43,.96,.81,1.69,1.14-.37,.27-.62,.56-.78,.87-.91-.7-1.55-1.34-1.9-1.92-.35-.58-.59-1.07-.71-1.46-.24,.67-.56,1.29-.94,1.85-.38,.56-.89,1.13-1.53,1.71-.18-.3-.46-.55-.82-.73,.61-.37,1.15-.88,1.62-1.53Zm3.5-5.6h-2.88c-.3,.61-.58,1.14-.82,1.6-.24-.21-.53-.35-.87-.41,.43-.61,.78-1.26,1.07-1.96,.29-.7,.5-1.37,.62-2.01,.4,.15,.78,.26,1.14,.32-.24,.21-.55,.81-.91,1.78h3.84c-.21,.58-.46,1.36-.73,2.33-.33-.09-.64-.15-.91-.18,.15-.46,.3-.94,.46-1.46Z"/><path d="M84,4.2c-.3,.46-.67,.96-1.1,1.51-.15-.3-.37-.53-.64-.69,.55-.55,1.05-1.22,1.51-2.01,.46-.79,.84-1.65,1.14-2.56,.37,.24,.69,.41,.96,.5-.21,.18-.55,.76-1.01,1.74v6.22c0,.98,.01,1.71,.05,2.19h-.96c.03-.43,.05-1.14,.05-2.15V4.2Zm3.25-1.05h1.78v-.91c0-.76-.02-1.28-.05-1.55h.96c-.03,.24-.05,.75-.05,1.51v.96h1.37c.4,0,.76-.01,1.1-.05v.87c-.33-.03-.7-.05-1.1-.05h-1.37v2.47h1.51c.46,0,1.01-.02,1.65-.05v.87c-.52-.03-1.08-.05-1.69-.05h-1.46v2.38c0,.46,.01,.96,.05,1.51h-.96c.03-.55,.05-1.05,.05-1.51v-2.38h-1.78c-.52,0-1.13,.02-1.83,.05v-.87c.67,.03,1.22,.05,1.64,.05h1.97V3.93h-2.06c-.09,.24-.35,.81-.78,1.69-.09-.09-.37-.23-.82-.41,.3-.46,.58-.97,.82-1.55,.24-.58,.46-1.31,.64-2.19,.24,.15,.59,.29,1.05,.41-.15,.12-.37,.55-.64,1.28Z"/><path d="M98.03,2.88c-.37-.03-.7-.05-1.01-.05h-1.42c-.21,.46-.43,.87-.64,1.23,.52,.03,.99,.05,1.42,.05s.87-.02,1.33-.05v.82c-.46-.03-.87-.05-1.23-.05v1.42c.61,0,1.14-.02,1.6-.05v.82c-.64-.03-1.17-.05-1.6-.05v2.24c.64-.64,1.04-1.07,1.19-1.28,.12,.27,.3,.53,.55,.78-.34,.24-.69,.55-1.05,.91-.37,.37-.76,.78-1.19,1.23-.24-.37-.44-.62-.59-.78,.18-.21,.29-.46,.32-.73v-2.38c-.37,0-.79,.02-1.28,.05v-.82c.49,.03,.91,.05,1.28,.05v-1.42c-.21,0-.5,.02-.87,.05v-.69l-.27,.37c-.18-.27-.4-.47-.64-.59,.4-.49,.75-1.05,1.05-1.69s.53-1.23,.69-1.78c.33,.15,.66,.27,.96,.37-.21,.27-.46,.69-.73,1.23h1.19c.3,0,.62-.02,.96-.05v.82Zm5.76,3.66c0,.55,.02,1.11,.05,1.69h-1.23v1.51c0,.43,.19,.65,.57,.66,.38,.02,.62-.1,.71-.34s.15-.52,.18-.82c.24,.15,.53,.31,.87,.46-.15,.76-.4,1.2-.73,1.3-.34,.11-.82,.14-1.44,.11-.62-.03-.94-.4-.94-1.1v-1.78h-1.1c-.15,.98-.46,1.67-.91,2.08-.46,.41-1.07,.74-1.83,.98-.09-.37-.26-.66-.5-.87,.94-.12,1.57-.38,1.87-.78,.3-.4,.49-.87,.55-1.42h-1.05c.03-.61,.05-1.16,.05-1.65,0-.52-.02-1.08-.05-1.69h4.98c-.03,.55-.05,1.1-.05,1.65Zm-3.11-3.15c-.12,.03-.3,.12-.55,.27h1.55c.21-.55,.33-1.05,.37-1.51h-2.33c-.18,0-.62,.02-1.33,.05v-.78c.67,.03,1.11,.05,1.33,.05h1.14c-.12-.3-.24-.58-.37-.82,.3-.06,.61-.14,.91-.23,.12,.31,.26,.66,.41,1.05h.78c.58,0,1.13-.02,1.64-.05v.78c-.58-.03-1.11-.05-1.6-.05h-.27c.24,.12,.49,.23,.73,.32-.24,.49-.43,.88-.55,1.19h.82c.43,0,.85-.02,1.28-.05v.78c-.43-.03-.85-.05-1.28-.05h-3.79c-.49,0-.93,.02-1.33,.05v-.78c.73,.03,1.17,.05,1.33,.05h.23c-.09-.33-.23-.67-.41-1.01,.21-.03,.47-.14,.78-.32,.15,.24,.32,.59,.5,1.05Zm2.29,2.88v-.73h-3.29v.73h3.29Zm0,1.33v-.64h-3.29v.64h3.29Z"/><path d="M108.04,3.06v5.85c0,.88,.01,1.6,.05,2.15h-.91c.06-.58,.09-1.28,.09-2.1V4.48c-.4,.64-.69,1.11-.87,1.42-.27-.27-.52-.49-.73-.64,.43-.46,.84-1.1,1.23-1.92,.4-.82,.72-1.77,.96-2.83,.27,.12,.65,.27,1.14,.46-.24,.24-.56,.94-.96,2.1Zm3.43-1.37h2.92c-.15,.31-.38,.78-.69,1.42h2.06c-.03,.46-.05,.85-.05,1.19s.02,.7,.05,1.1h-3.25c-.18,.15-.33,.29-.46,.41,.37,.27,.69,.62,.96,1.05,.67-.33,1.23-.73,1.69-1.19,.12,.18,.37,.4,.73,.64-.37,.21-.73,.44-1.1,.69,.43,1.16,1.1,1.95,2.01,2.38-.4,.21-.66,.43-.78,.64-.85-.67-1.48-1.58-1.87-2.74-.06,.06-.18,.14-.37,.23,.15,.37,.24,.75,.27,1.17,.03,.41,.01,.82-.05,1.21-.06,.4-.24,.72-.53,.96-.29,.24-.72,.41-1.3,.5-.06-.31-.21-.61-.46-.91,.73,.03,1.19-.11,1.37-.43,.18-.32,.23-.86,.14-1.62-1.13,1.01-2.22,1.75-3.29,2.24-.09-.3-.31-.55-.64-.73,1.16-.33,2.38-1.08,3.66-2.24-.09-.24-.18-.44-.27-.59-1.04,.94-2.01,1.63-2.93,2.06-.15-.27-.35-.5-.59-.69,1.01-.27,2.03-.9,3.06-1.87l-.32-.32c-.82,.55-1.54,.96-2.15,1.23-.12-.3-.32-.56-.59-.78,1.13-.33,2.03-.76,2.7-1.28h-1.78c.03-.3,.05-.88,.05-1.74-.12,.15-.27,.3-.46,.46-.18-.21-.41-.41-.69-.59,.52-.4,1.02-.88,1.51-1.44,.49-.56,.84-1.12,1.05-1.67,.49,.24,.87,.4,1.14,.46-.27,.18-.53,.46-.78,.82Zm1.37,1.42c.09-.21,.2-.47,.32-.78h-2.15c-.21,.21-.44,.47-.69,.78h2.51Zm-.96,1.65c.12-.37,.23-.7,.32-1.01h-1.69v1.01h1.37Zm3.02,0v-1.01h-1.87c-.09,.34-.2,.67-.32,1.01h2.19Z"/><path d="M121.48,6.56c-.15,.72-.3,1.41-.46,2.08,.58-.12,.99-.21,1.23-.27,0,.24,.03,.49,.09,.73-.95,.21-1.76,.4-2.45,.57-.69,.17-1.32,.36-1.9,.57-.06-.3-.2-.64-.41-1.01,1.31-.18,2.18-.33,2.61-.46,.12-.4,.27-.98,.43-1.76,.17-.78,.28-1.61,.34-2.49,.33,.12,.67,.21,1,.27-.18,.46-.35,1.04-.5,1.76Zm-1-3.59c.43,0,1.07-.02,1.92-.05v.87c-.85-.03-1.49-.05-1.92-.05h-.91c-.49,0-1.11,.02-1.87,.05v-.87c.76,.03,1.39,.05,1.87,.05h.91Zm-.64,4.8c-.31,.09-.59,.17-.87,.23-.12-.73-.41-1.75-.87-3.06,.24-.09,.53-.18,.87-.27,.49,1.58,.78,2.62,.87,3.11Zm-.78-6.86c.24-.09,.5-.21,.78-.37,.27,.4,.55,.99,.82,1.78-.24,.12-.53,.23-.87,.32-.12-.52-.37-1.1-.73-1.74Zm6.08,1.97h1.33c.49,0,1.02-.02,1.6-.05v.87c-.58-.03-1.11-.05-1.6-.05h-1.33v2.24h2.29c-.03,.46-.04,.88-.04,1.28v2.24c0,.55,.01,1.11,.04,1.69h-.96v-.96h-3.06v1h-.87c0-.55,.01-1.04,.05-1.46v-2.42c-.03-.4-.05-.85-.05-1.37h1.74V1.74c0-.27-.02-.69-.05-1.23h.96c-.03,.58-.05,.96-.05,1.14v1.23Zm1.33,6.54v-2.79h-3.06v2.79h3.06Z"/></g></svg>