<?xml version="1.0" encoding="UTF-8"?><svg id="a" xmlns="http://www.w3.org/2000/svg" viewBox="0 0 283.58 79.78"><defs><style>.b{fill:#fff;}</style></defs><g><g><path class="b" d="M26.29,73.99l-.06,.02c-.33-.17-.73-.37-1.21-.58-.47-.21-.97-.43-1.5-.65l-.02-.06,.1-.22,.06-.02c.13,.04,.25,.09,.37,.13,.21,.08,.35,.12,.42,.12,.05,0,.1-.03,.16-.08,.1-.1,.33-.54,.68-1.33l.4-.89c.12-.27,.27-.61,.45-1.03l.12-.27c.06-.12,.06-.19,0-.21-.02,0-.11-.02-.25-.01-.4,0-.74,0-1.02,.02l-.03-.04c.05-.14,.09-.3,.13-.49l.02-.03c.75,.11,1.6,.2,2.55,.25l.05,.09c-.07,.14-.18,.34-.32,.61-.06,.1-.19,.38-.41,.83l-.65,1.41c-.46,1.01-.68,1.56-.68,1.65,0,.06,.02,.12,.06,.15,.07,.06,.28,.19,.64,.37l.03,.05-.1,.22Z"/><path class="b" d="M37.15,74.82c-.04,.3-.14,.57-.29,.79-.29,.42-.71,.68-1.26,.77-.23,.04-.49,.04-.8,0-.66-.09-1.14-.38-1.43-.87-.13-.22-.18-.49-.13-.82,.05-.4,.24-.7,.56-.91,.1-.07,.32-.16,.66-.27-.54-.37-.78-.83-.71-1.37,.08-.61,.45-1.01,1.11-1.22,.29-.08,.6-.11,.94-.06,.5,.06,.88,.23,1.14,.5,.25,.25,.34,.55,.3,.9-.06,.47-.39,.82-.99,1.04,.39,.21,.65,.44,.79,.69,.13,.22,.17,.51,.12,.85Zm-1.04,.32c.05-.38-.1-.69-.45-.93-.23-.16-.47-.31-.74-.45l-.11-.05c-.45,.23-.7,.56-.76,.99-.03,.25-.01,.46,.07,.62,.18,.37,.48,.59,.89,.65,.29,.04,.54-.02,.74-.17,.21-.16,.33-.38,.37-.66Zm.36-2.89c.03-.26-.02-.47-.17-.65-.15-.18-.37-.29-.66-.32-.26-.04-.48,0-.66,.14-.16,.12-.25,.28-.29,.48-.02,.2,.04,.39,.21,.58,.09,.1,.23,.21,.41,.32,.06,.04,.16,.1,.29,.17l.23,.12c.38-.16,.6-.44,.65-.83Z"/><path class="b" d="M46.42,72.82c.1,.7,.04,1.29-.18,1.79-.22,.52-.55,.96-1,1.31-.45,.36-.98,.58-1.57,.66l-.38-.21,.08-.17c.09,.01,.2,.01,.33,0,.45-.06,.83-.27,1.13-.62,.12-.14,.22-.32,.31-.54,.14-.35,.21-.84,.19-1.47-.38,.42-.6,.64-.65,.65-.18,.09-.39,.15-.61,.18-.39,.05-.72-.03-1-.25-.3-.24-.49-.6-.55-1.08-.11-.77,.11-1.37,.66-1.82,.26-.21,.59-.35,1.01-.4,.78-.11,1.38,.14,1.8,.75,.21,.3,.35,.71,.42,1.23Zm-1.2-.25c-.07-.48-.2-.83-.39-1.05-.19-.21-.42-.3-.69-.26-.34,.05-.54,.24-.61,.59-.04,.18-.05,.4-.01,.64,.06,.4,.19,.71,.38,.9,.18,.18,.41,.25,.68,.22,.35-.04,.56-.21,.63-.5,.04-.13,.04-.31,0-.53Z"/><path class="b" d="M55.68,71.18c.13,.28,.18,.56,.16,.82-.04,.51-.26,.95-.68,1.31-.17,.15-.4,.29-.69,.41-.61,.26-1.16,.26-1.67,0-.23-.12-.41-.33-.54-.63-.16-.37-.16-.73,0-1.07,.05-.11,.2-.3,.43-.57-.66-.04-1.1-.31-1.32-.81-.25-.57-.14-1.11,.32-1.62,.2-.22,.45-.4,.77-.54,.46-.2,.87-.26,1.23-.16,.34,.09,.58,.29,.72,.61,.19,.44,.09,.9-.31,1.4,.44-.02,.79,.04,1.03,.18,.23,.13,.41,.35,.54,.66Zm-1.91-1.84c-.11-.24-.27-.39-.49-.47-.22-.08-.46-.05-.73,.06-.24,.1-.41,.26-.49,.45-.08,.19-.08,.37,0,.55,.08,.19,.24,.31,.48,.39,.13,.04,.3,.06,.51,.06,.08,0,.19,0,.34,0h.26c.24-.34,.29-.69,.13-1.06Zm1.2,2.66c-.15-.35-.44-.54-.87-.56-.28-.02-.57-.01-.87,0h-.13c-.27,.43-.31,.85-.14,1.25,.1,.23,.23,.4,.39,.5,.35,.23,.72,.25,1.1,.09,.27-.12,.45-.3,.54-.53,.09-.24,.08-.49-.03-.75Z"/></g><path class="b" d="M24.37,3.14c-4.75,2.01-9.02,4.89-12.68,8.55-3.66,3.66-6.54,7.93-8.55,12.68-2.08,4.92-3.14,10.14-3.14,15.53s1.06,10.61,3.14,15.53c2.01,4.75,4.88,9.01,8.55,12.68s7.93,6.54,12.68,8.55c4.91,2.08,10.14,3.14,15.52,3.14s10.61-1.05,15.53-3.14c4.75-2.01,9.02-4.88,12.68-8.55,3.66-3.66,6.54-7.93,8.55-12.68,2.08-4.92,3.14-10.14,3.14-15.53s-1.05-10.61-3.14-15.53c-2.01-4.75-4.88-9.02-8.55-12.68-3.66-3.66-7.93-6.54-12.68-8.55-4.92-2.08-10.14-3.14-15.53-3.14s-10.61,1.06-15.52,3.14Zm.51,72.29c-4.59-1.94-8.72-4.72-12.26-8.27-3.55-3.54-6.33-7.67-8.27-12.26-2.01-4.75-3.03-9.81-3.03-15.01s1.02-10.26,3.03-15.02c1.94-4.59,4.72-8.72,8.27-12.26,3.54-3.54,7.67-6.33,12.26-8.27,4.75-2.01,9.8-3.03,15.01-3.03s10.26,1.02,15.01,3.03c4.6,1.94,8.72,4.73,12.26,8.27,3.55,3.54,6.32,7.67,8.27,12.26,2.01,4.76,3.03,9.81,3.03,15.02s-1.02,10.26-3.03,15.01c-1.94,4.59-4.72,8.72-8.27,12.26-3.54,3.54-7.67,6.33-12.26,8.27-4.75,2.01-9.81,3.03-15.01,3.03s-10.26-1.01-15.01-3.03Z"/><path class="b" d="M28.41,12.71c-3.51,1.48-6.67,3.61-9.37,6.32-2.71,2.71-4.84,5.86-6.33,9.37-1.54,3.64-2.32,7.5-2.32,11.48s.78,7.85,2.32,11.48c1.49,3.51,3.61,6.66,6.33,9.37,2.7,2.71,5.86,4.84,9.37,6.32,3.64,1.54,7.5,2.32,11.48,2.32s7.85-.78,11.49-2.32c3.51-1.48,6.67-3.61,9.38-6.32,2.71-2.71,4.83-5.86,6.32-9.37,1.54-3.64,2.32-7.5,2.32-11.48s-.78-7.84-2.32-11.48c-1.49-3.51-3.61-6.66-6.32-9.37-2.71-2.71-5.86-4.84-9.38-6.32-3.64-1.54-7.5-2.32-11.49-2.32s-7.84,.78-11.48,2.32Zm.35,53.54c-3.41-1.44-6.47-3.5-9.1-6.13-2.63-2.63-4.69-5.69-6.13-9.09-1.49-3.53-2.25-7.27-2.25-11.14s.76-7.61,2.25-11.14c1.44-3.41,3.5-6.47,6.13-9.09,2.63-2.63,5.69-4.69,9.1-6.13,3.53-1.5,7.27-2.25,11.13-2.25s7.61,.75,11.14,2.25c3.41,1.44,6.46,3.5,9.09,6.13,2.63,2.62,4.69,5.68,6.13,9.09,1.49,3.53,2.25,7.28,2.25,11.14s-.75,7.61-2.25,11.14c-1.44,3.41-3.5,6.46-6.13,9.09-2.63,2.63-5.69,4.69-9.09,6.13-3.53,1.5-7.28,2.25-11.14,2.25s-7.61-.75-11.13-2.25Z"/><g><path class="b" d="M6.06,50.11c.28-.11,.54-.14,.78-.1,.24,.03,.47,.13,.67,.28,.21,.16,.39,.36,.55,.6,.16,.24,.3,.53,.43,.86l.15,.39,1.38-.52c.08-.03,.15-.07,.2-.13,.05-.05,.08-.13,.08-.24,0-.05,0-.14-.03-.25-.02-.11-.04-.21-.06-.28l.27-.1,1.03,2.69-.27,.1c-.03-.06-.07-.15-.13-.25-.05-.11-.1-.18-.13-.22-.07-.08-.14-.12-.21-.13-.07,0-.14,0-.24,.04l-3.46,1.32c-.08,.03-.15,.07-.19,.13-.05,.05-.08,.13-.08,.24,0,.07,0,.17,.03,.29,.02,.12,.03,.2,.05,.26l-.27,.1-1.03-2.71c-.25-.63-.33-1.15-.24-1.54,.09-.39,.33-.67,.75-.82Zm.68,1.27c-.37,.14-.61,.32-.73,.54-.12,.22-.11,.51,.03,.89l.11,.29,2.16-.83-.06-.15c-.14-.37-.34-.62-.59-.76-.25-.13-.56-.13-.92,.01Z"/><path class="b" d="M4.66,41.85l.03,.29c-.19,.09-.37,.24-.56,.43-.18,.2-.28,.38-.3,.56,0,.07,0,.17,0,.3,.01,.13,.02,.24,.03,.32l.09,.75,2.01-.23-.06-.53c-.02-.13-.04-.25-.09-.36-.04-.1-.12-.2-.22-.28-.06-.05-.17-.09-.32-.14-.15-.04-.28-.06-.38-.06l-.03-.29,2.17-.25,.04,.29c-.1,.02-.23,.07-.38,.15-.15,.08-.25,.14-.3,.21-.08,.09-.13,.19-.15,.3-.02,.12-.02,.24,0,.39l.06,.54,1.51-.18c.16-.02,.28-.04,.37-.07,.09-.04,.15-.09,.2-.16,.04-.06,.06-.15,.06-.26,0-.11,0-.25-.03-.43,0-.09-.02-.19-.04-.31-.01-.12-.04-.22-.06-.31-.02-.1-.05-.2-.09-.28-.04-.09-.08-.15-.13-.19-.13-.1-.33-.21-.59-.33-.26-.12-.46-.19-.59-.22l-.03-.27,1.64-.09,.57,4.9-.29,.03c-.01-.07-.04-.16-.06-.28-.03-.12-.06-.2-.08-.25-.05-.09-.11-.14-.17-.17-.06-.03-.14-.03-.24-.02l-3.68,.43c-.09,.01-.16,.03-.21,.07-.05,.04-.1,.11-.13,.21-.02,.07-.04,.16-.05,.28,0,.12-.02,.21-.02,.27l-.29,.04-.54-4.63,1.34-.16Z"/><path class="b" d="M9.38,32.12l-.29,2.06c-.53,.24-.96,.46-1.32,.67-.36,.2-.81,.46-1.35,.78l-.03,.19,1.64,.24c.09,.01,.17,0,.23-.01,.07-.03,.12-.08,.18-.17,.02-.04,.05-.1,.08-.18,.03-.08,.06-.17,.08-.25l.29,.04-.39,2.77-.29-.04c0-.07,.01-.16,.02-.28,0-.12,0-.21,0-.26-.02-.09-.06-.16-.12-.21-.05-.04-.13-.07-.23-.09l-3.69-.52c-.09-.01-.16-.01-.22,.01-.06,.02-.12,.08-.18,.17-.05,.07-.09,.16-.12,.26-.04,.1-.07,.19-.08,.25l-.29-.04,.41-2.86,.29,.04c0,.08,0,.17,0,.28,0,.11,0,.2,.02,.28,.02,.1,.06,.17,.12,.21,.07,.04,.14,.07,.22,.08l1.76,.25,.02-.15c-.15-.21-.32-.47-.53-.75-.21-.29-.38-.52-.52-.68-.19-.22-.34-.39-.46-.5-.12-.11-.22-.17-.31-.19-.04,0-.08,.04-.12,.12-.04,.09-.07,.22-.11,.4l-.29-.04,.33-2.26,.29,.04c0,.28,.01,.51,.05,.7,.04,.2,.13,.39,.27,.6,.2,.29,.37,.53,.52,.73,.15,.19,.34,.44,.57,.74,.32-.19,.71-.42,1.17-.69,.46-.27,.91-.54,1.35-.81,.11-.07,.22-.15,.33-.24,.11-.09,.2-.2,.27-.32,.04-.06,.07-.12,.09-.2,.03-.08,.04-.14,.05-.2l.29,.04Z"/><path class="b" d="M11.37,26.91l-1.09,2.71-.27-.11c.02-.07,.05-.16,.09-.28,.04-.12,.06-.21,.06-.26,0-.1-.02-.17-.07-.23-.04-.05-.11-.1-.2-.14l-3.46-1.38c-.08-.03-.15-.04-.22-.04-.07,0-.14,.04-.21,.12-.05,.04-.1,.12-.17,.22-.07,.1-.12,.19-.16,.25l-.27-.1,1.08-2.71,.27,.11c-.02,.07-.04,.16-.07,.27-.03,.11-.05,.2-.05,.28,0,.1,.02,.18,.07,.23,.05,.06,.12,.1,.2,.13l3.46,1.39c.08,.04,.16,.05,.23,.04,.07,0,.15-.04,.21-.12,.04-.04,.09-.11,.16-.21,.06-.1,.12-.2,.15-.27l.27,.11Z"/><path class="b" d="M12.21,16.24c-.04,.06-.08,.14-.14,.26-.06,.11-.08,.23-.08,.36,0,.12,.06,.24,.17,.36,.11,.13,.29,.28,.55,.46l3.06,2.2-.38,.53-5.21,.29,2,1.43c.25,.18,.45,.3,.6,.36,.15,.06,.29,.07,.4,.04,.08-.02,.19-.08,.3-.17,.12-.1,.21-.17,.27-.24l.24,.17-1.32,1.84-.24-.17c.05-.08,.1-.18,.15-.3,.05-.12,.08-.23,.08-.33,0-.12-.05-.24-.15-.35-.1-.12-.28-.27-.56-.47l-2.03-1.46c-.1-.07-.21-.12-.32-.16-.11-.04-.23-.04-.33-.02-.12,.02-.23,.07-.33,.13-.11,.06-.21,.14-.31,.24l-.24-.17,1.15-1.61,4.57-.25-1.63-1.17c-.26-.18-.46-.3-.61-.36-.15-.06-.28-.07-.4-.04-.09,.03-.19,.08-.3,.17-.12,.09-.21,.16-.27,.22l-.23-.16,1.31-1.83,.23,.17Z"/><path class="b" d="M21.32,11.9c-.06,.05-.1,.11-.14,.15-.04,.04-.08,.11-.13,.18-.06,.09-.08,.17-.05,.25,.02,.08,.05,.14,.11,.21l.38,.48c.08,.09,.14,.17,.19,.23,.05,.06,.11,.13,.18,.22-.1,.27-.29,.61-.59,1.01-.29,.4-.6,.74-.91,.99-.3,.24-.61,.42-.94,.54-.33,.12-.67,.17-1.01,.14-.34-.02-.67-.12-1-.3-.33-.17-.63-.43-.9-.77-.25-.32-.44-.66-.55-1.01-.12-.36-.15-.71-.11-1.07,.04-.35,.16-.69,.35-1.03,.2-.33,.47-.64,.81-.91,.23-.19,.47-.33,.71-.43,.25-.1,.46-.17,.64-.21l.05-.3,.25-.21,1.23,1.48-.25,.2c-.51-.34-.95-.52-1.33-.58-.38-.05-.72,.05-1.04,.3-.37,.3-.52,.69-.47,1.17,.06,.48,.31,1.01,.77,1.58,.48,.6,.96,1,1.43,1.17,.47,.18,.88,.13,1.25-.16,.17-.14,.3-.28,.39-.44,.09-.16,.14-.3,.16-.42l-.67-.83c-.06-.07-.11-.12-.18-.14-.06-.03-.15-.03-.25,0-.08,.02-.17,.05-.27,.11-.1,.05-.19,.1-.25,.13l-.18-.22,2.13-1.72,.18,.23Z"/><path class="b" d="M33.57,4.03c-.07,.03-.16,.07-.29,.13-.12,.06-.22,.13-.29,.22-.08,.08-.11,.21-.11,.37,0,.16,.05,.4,.13,.71l.51,1.89c.15,.55,.08,1.05-.21,1.49-.29,.44-.74,.74-1.36,.91-.73,.19-1.33,.18-1.82-.04-.48-.22-.8-.62-.96-1.21l-.7-2.59c-.02-.09-.05-.15-.1-.2-.05-.05-.12-.09-.22-.12-.07-.01-.16-.02-.25-.01-.1,0-.17,.01-.23,.02l-.08-.28,2.66-.71,.08,.28c-.08,.03-.15,.05-.22,.09-.08,.03-.15,.07-.23,.12-.09,.05-.13,.12-.15,.19-.01,.08,0,.15,.02,.24l.68,2.55c.14,.5,.34,.84,.63,1.01,.29,.17,.64,.2,1.07,.09,.41-.11,.71-.32,.88-.64,.17-.32,.19-.72,.06-1.21l-.46-1.72c-.08-.31-.16-.53-.25-.67-.08-.14-.18-.23-.28-.28-.08-.03-.2-.05-.36-.05-.17,0-.28,0-.35,0l-.08-.29,2.22-.59,.07,.29Z"/><path class="b" d="M43.51,3.66c-.07,0-.17,.02-.3,.03-.13,.02-.25,.07-.35,.14-.09,.07-.16,.18-.2,.34-.04,.16-.06,.4-.07,.71l-.05,3.77h-.66s-3.21-4.12-3.21-4.12l-.04,2.47c0,.31,.01,.54,.05,.7,.04,.16,.1,.28,.19,.35,.07,.06,.17,.1,.32,.15,.14,.05,.26,.08,.35,.09v.29s-2.26-.03-2.26-.03v-.28c.1,0,.21-.03,.33-.05,.13-.03,.23-.07,.31-.12,.1-.07,.16-.18,.2-.32,.04-.14,.06-.39,.06-.73l.04-2.5c0-.13-.01-.24-.05-.35-.04-.11-.09-.21-.17-.29-.09-.09-.18-.15-.29-.2-.11-.05-.24-.09-.38-.12v-.29l1.98,.03,2.82,3.61,.03-2c0-.32-.01-.55-.05-.71-.04-.16-.11-.27-.2-.35-.07-.05-.18-.11-.31-.15-.14-.04-.25-.07-.34-.09v-.28s2.25,.03,2.25,.03v.29Z"/><path class="b" d="M49.18,9.95l-2.83-.73,.07-.28c.06,.01,.16,.03,.29,.05,.13,.02,.22,.03,.27,.02,.1-.01,.17-.04,.22-.1,.05-.05,.08-.12,.11-.21l.94-3.61c.02-.08,.02-.16,0-.23-.02-.07-.06-.13-.15-.2-.05-.04-.13-.08-.23-.14-.1-.05-.2-.1-.28-.13l.07-.28,2.83,.73-.07,.28c-.07-.01-.16-.03-.27-.04-.11-.01-.21-.02-.29-.01-.1,0-.18,.04-.23,.1-.05,.06-.08,.13-.1,.21l-.93,3.61c-.02,.08-.02,.16,0,.23,.02,.07,.07,.14,.15,.2,.04,.04,.12,.08,.23,.13,.11,.05,.21,.08,.28,.11l-.07,.28Z"/><path class="b" d="M59.53,9.25c-.08-.03-.15-.05-.23-.07-.08-.02-.16-.02-.25-.02-.12,0-.23,.02-.31,.06-.08,.04-.18,.09-.29,.17-.15,.12-.36,.28-.63,.51-.28,.22-.59,.47-.94,.76-.31,.26-.66,.54-1.03,.85-.37,.3-.73,.61-1.07,.88l-.65-.35c.09-.91,.18-1.83,.28-2.78,.1-.94,.16-1.59,.19-1.97,0-.13,0-.24-.01-.32-.02-.08-.06-.18-.13-.29-.05-.08-.1-.14-.15-.19-.05-.04-.12-.1-.2-.16l.14-.26,2.52,1.33-.13,.25c-.25-.1-.44-.16-.54-.17-.1-.01-.17,0-.19,.05-.01,.03-.02,.05-.03,.08,0,.03-.01,.07-.03,.13-.03,.23-.07,.61-.12,1.15-.05,.54-.13,1.36-.24,2.45,.51-.43,.95-.8,1.3-1.1,.35-.3,.66-.57,.92-.8,.13-.11,.25-.22,.35-.32,.1-.1,.17-.18,.2-.24,.04-.07,.02-.15-.06-.26-.08-.1-.25-.24-.51-.4l.14-.26,1.89,1-.14,.26Z"/><path class="b" d="M65.25,15.36l-.21-.2c.09-.2,.13-.43,.14-.7,0-.27-.03-.47-.13-.62-.04-.07-.11-.14-.21-.23-.09-.1-.17-.17-.24-.23l-.56-.51-1.37,1.5,.39,.37c.1,.09,.2,.16,.3,.21,.1,.05,.22,.08,.35,.07,.08,0,.19-.04,.32-.11,.14-.07,.25-.13,.34-.2l.21,.19-1.47,1.62-.21-.2c.06-.08,.12-.21,.18-.36,.06-.16,.09-.28,.09-.36,0-.12-.03-.23-.08-.33-.06-.1-.14-.2-.25-.29l-.4-.36-1.02,1.12c-.11,.12-.18,.22-.23,.3-.04,.08-.06,.17-.04,.25,0,.07,.05,.16,.12,.24,.07,.08,.17,.19,.31,.32,.06,.05,.14,.13,.23,.21,.09,.08,.17,.14,.25,.2,.08,.06,.17,.11,.25,.16,.09,.04,.16,.06,.22,.06,.16,0,.39-.06,.66-.14,.28-.09,.47-.15,.59-.22l.2,.18-1.18,1.14-3.64-3.32,.2-.21c.05,.04,.13,.1,.23,.17,.1,.07,.17,.11,.22,.13,.1,.04,.18,.04,.24,.02,.07-.02,.13-.07,.19-.14l2.5-2.74c.06-.06,.1-.13,.12-.19,.02-.06,0-.15-.04-.25-.03-.06-.08-.14-.15-.24-.07-.1-.12-.17-.16-.22l.19-.21,3.44,3.14-.91,1Z"/><path class="b" d="M67.98,25.69l-1.09-1.7c.26-.58,.46-1.05,.6-1.41,.14-.37,.29-.81,.45-1.32l-.1-.16-1.33,.86c-.08,.04-.13,.1-.17,.16-.03,.06-.04,.14-.03,.25,0,.04,.03,.12,.07,.22,.04,.09,.07,.17,.1,.24l-.24,.16-1.53-2.36,.24-.16c.04,.06,.11,.13,.18,.23,.08,.09,.13,.15,.18,.18,.08,.06,.16,.08,.23,.08,.07,0,.14-.03,.22-.09l3.12-2.01c.07-.05,.12-.1,.16-.16,.04-.05,.04-.14,.03-.25-.02-.09-.05-.18-.09-.28-.04-.1-.07-.18-.1-.24l.24-.16,1.6,2.48c.36,.56,.54,1.03,.56,1.43,0,.4-.16,.71-.51,.94-.31,.2-.62,.27-.92,.22-.3-.06-.63-.23-.96-.53-.09,.26-.2,.56-.32,.9-.12,.34-.24,.7-.36,1.06-.04,.12-.08,.27-.13,.46-.05,.19-.05,.33-.03,.43,.02,.06,.04,.12,.08,.2,.04,.08,.06,.14,.08,.17l-.24,.16Zm1.92-4.24c.3-.19,.46-.41,.49-.67,.03-.25-.05-.53-.25-.83l-.16-.25-1.85,1.19,.15,.24c.2,.3,.43,.49,.7,.55,.27,.06,.58-.01,.92-.24Z"/><path class="b" d="M69.45,30c-.1-.3-.16-.6-.17-.89-.01-.29,0-.54,.04-.76l-.33-.16-.1-.3,1.79-.64,.1,.3c-.15,.13-.3,.27-.45,.44-.15,.17-.28,.35-.38,.54-.11,.19-.18,.4-.22,.61-.04,.21-.02,.43,.06,.67,.11,.32,.26,.54,.48,.66,.21,.12,.44,.14,.67,.06,.19-.06,.33-.19,.41-.38,.08-.19,.12-.45,.12-.78,0-.22,0-.42,0-.6,0-.18,0-.36,0-.52,.02-.38,.13-.69,.33-.94,.19-.25,.45-.43,.75-.52,.19-.07,.39-.09,.6-.06,.21,.02,.41,.09,.61,.21,.19,.11,.36,.27,.52,.48,.17,.21,.3,.46,.39,.74,.09,.28,.14,.55,.15,.82,0,.27,0,.48-.04,.65l.28,.14,.1,.31-1.69,.6-.1-.3c.16-.13,.32-.28,.47-.44,.16-.16,.28-.31,.37-.46,.1-.16,.16-.33,.19-.5,.03-.18,.01-.37-.06-.57-.08-.25-.23-.43-.42-.55-.2-.11-.4-.14-.61-.06-.2,.07-.34,.19-.41,.37-.08,.18-.12,.44-.11,.76,0,.2,0,.39,0,.59,0,.2,0,.38-.01,.54-.01,.38-.11,.7-.28,.96-.17,.26-.43,.44-.77,.55-.21,.07-.44,.09-.68,.06-.24-.04-.45-.11-.64-.24-.21-.14-.4-.32-.56-.54-.16-.22-.3-.49-.41-.82Z"/><path class="b" d="M71.17,38.09l-.3-2.9,.29-.03c.01,.06,.03,.16,.05,.29,.03,.13,.05,.22,.07,.26,.04,.09,.1,.15,.17,.17,.06,.03,.14,.04,.23,.03l3.71-.38c.08,0,.16-.03,.22-.07,.06-.04,.1-.11,.13-.2,.02-.06,.04-.15,.05-.27,.01-.12,.02-.22,.02-.3l.29-.03,.3,2.9-.29,.03c-.02-.07-.04-.17-.06-.27-.02-.11-.05-.2-.09-.28-.04-.09-.1-.15-.17-.17-.07-.03-.15-.04-.24-.03l-3.7,.38c-.09,.01-.16,.03-.23,.07-.06,.04-.1,.11-.13,.2-.02,.05-.03,.14-.04,.26,0,.12,0,.22,0,.3l-.29,.03Z"/><path class="b" d="M74.4,46.59l.03-.29c.23-.05,.48-.14,.76-.28,.28-.14,.43-.27,.47-.42,.02-.07,.04-.18,.06-.29,.02-.12,.04-.21,.04-.29l.02-.18-4.09-.49c-.09,0-.17,0-.24,.02-.07,.03-.13,.08-.18,.17-.02,.05-.06,.14-.1,.25-.04,.12-.07,.22-.08,.3l-.29-.03,.35-2.92,.29,.03c0,.07,0,.18,0,.3,0,.13,0,.22,.02,.27,.03,.1,.07,.17,.13,.21,.06,.04,.14,.06,.23,.08l4.13,.49,.02-.17c.01-.08,.02-.18,.02-.3,0-.11,.01-.21,.01-.29,0-.14-.12-.32-.36-.51-.23-.2-.46-.35-.67-.45l.03-.29,1.5,.18-.6,5.06-1.5-.18Z"/><path class="b" d="M72.69,55.69c.02-.09,.04-.17,.04-.24,0-.08,0-.16-.01-.23-.02-.12-.05-.24-.11-.34-.06-.11-.13-.23-.2-.34-.16-.23-.34-.48-.53-.74-.2-.26-.41-.55-.64-.86-.15-.2-.27-.34-.36-.41-.1-.07-.27-.15-.53-.25l-.7-.27c-.08-.03-.16-.05-.24-.04-.07,0-.15,.05-.22,.12-.03,.04-.08,.11-.16,.22-.07,.12-.13,.21-.15,.26l-.28-.1,1.06-2.75,.27,.1c-.02,.07-.05,.17-.08,.29-.03,.13-.05,.22-.05,.28,0,.1,.03,.18,.08,.23,.05,.05,.12,.1,.21,.13l.87,.33c.08,.03,.14,.05,.2,.07,.06,.02,.11,.03,.15,.03,.05,0,.12,0,.2-.02,.08-.01,.19-.03,.32-.05,.38-.06,.74-.11,1.08-.17,.34-.06,.67-.12,.97-.17,.15-.03,.29-.07,.4-.12,.11-.05,.2-.11,.28-.17,.06-.05,.11-.11,.17-.2,.05-.08,.09-.15,.13-.22l.27,.11-1.08,2.81-.27-.1c.09-.26,.14-.45,.15-.54,0-.1-.02-.17-.07-.18-.02-.01-.08-.01-.17-.01-.09,0-.23,.02-.42,.04-.18,.02-.43,.06-.75,.1-.32,.05-.7,.12-1.13,.2,.53,.71,.9,1.19,1.11,1.46,.22,.27,.35,.42,.42,.44,.08,.03,.16,0,.24-.08,.08-.08,.16-.22,.25-.43l.27,.1-.69,1.82-.27-.1Z"/></g><path class="b" d="M67.02,39.89c0,14.98-12.15,27.13-27.13,27.13s-27.14-12.15-27.14-27.13S24.91,12.76,39.89,12.76s27.13,12.15,27.13,27.14Zm-31.11-22.75c-1.18,0-2.14,.96-2.14,2.14v2.78c-2.24,.51-4.51,1.35-6.78,2.5-2.58,1.3-5.11,2.99-7.34,4.9-.87,.74-.97,2.05-.23,2.92,.75,.87,2.05,.97,2.92,.23,3.49-2.99,7.54-5.2,11.42-6.27v4.76c-2.7,.88-5.34,2.37-7.87,4.46-2.84,2.35-5.49,5.39-7.87,9.05-.23,.35-.34,.74-.34,1.13,0,.68,.34,1.34,.95,1.74,.96,.62,2.24,.35,2.86-.61,2.15-3.31,4.51-6.04,7.03-8.11,2.57-2.12,5.41-3.57,7.9-4.1,1.11-.24,1.62-1.26,1.62-1.97v-13.4c0-1.18-.96-2.14-2.14-2.14Zm5.82,2.14v13.4c0,.71,.51,1.73,1.62,1.97,2.49,.53,5.33,1.98,7.89,4.1,2.52,2.08,4.88,4.8,7.03,8.11,.62,.96,1.91,1.23,2.87,.61,.61-.4,.94-1.06,.94-1.74,0-.39-.11-.78-.33-1.13-2.38-3.66-5.02-6.7-7.87-9.05-2.52-2.09-5.16-3.58-7.86-4.46v-4.76c3.89,1.07,7.94,3.28,11.43,6.27,.87,.74,2.18,.64,2.92-.23,.75-.87,.64-2.18-.23-2.92-2.23-1.91-4.77-3.6-7.34-4.9-2.27-1.15-4.54-1.98-6.78-2.5v-2.78c0-1.18-.96-2.14-2.14-2.14s-2.15,.96-2.15,2.14Zm15.03,34.39c-.9-2.1-1.92-4.03-3.04-5.75-1.17-1.81-2.46-3.38-3.81-4.68-1.46-1.39-3.01-2.47-4.62-3.21-1.06-.49-2.15-.83-3.25-1.02v-1.26c0-1.18-.96-2.15-2.15-2.15s-2.14,.96-2.14,2.15v1.26c-1.1,.19-2.19,.53-3.24,1.02-1.61,.74-3.16,1.82-4.62,3.21-1.35,1.29-2.64,2.87-3.81,4.68-1.12,1.71-2.14,3.65-3.04,5.75-.45,1.05,.04,2.27,1.08,2.73,1.05,.45,2.27-.04,2.72-1.09,1.62-3.8,3.67-6.93,5.91-9.06,1.61-1.54,3.29-2.54,5-2.99v3.37c0,1.16-.85,1.61-1.25,1.85-.13,.08-.4,.24-.52,.32-.8,.52-1.71,1.31-2.56,2.41-1.54,1.98-2.74,4.67-3.38,7.59-.25,1.12,.46,2.22,1.58,2.47,1.12,.24,2.22-.46,2.47-1.58,.51-2.32,1.43-4.43,2.6-5.92,.59-.76,1.81-2.05,3.21-2.05s2.62,1.28,3.21,2.05c1.17,1.5,2.09,3.6,2.6,5.92,.24,1.12,1.35,1.83,2.46,1.58,1.12-.24,1.83-1.34,1.59-2.47-.63-2.92-1.84-5.61-3.38-7.59-.85-1.1-1.77-1.89-2.56-2.41-.13-.08-.4-.24-.53-.32-.39-.24-1.24-.69-1.24-1.85v-3.37c1.72,.45,3.39,1.45,5,2.99,2.24,2.13,4.28,5.27,5.91,9.06,.45,1.05,1.67,1.54,2.72,1.09,1.05-.46,1.54-1.67,1.09-2.73Z"/></g><g><g><path class="b" d="M105.81,67.43c0,.66-.13,1.25-.39,1.76-.26,.51-.62,.94-1.08,1.27-.45,.34-.95,.58-1.49,.74-.54,.16-1.12,.23-1.73,.23h-1.42v3.85c0,.21,.03,.39,.1,.55,.07,.16,.21,.28,.43,.36,.11,.04,.3,.08,.57,.11,.27,.04,.53,.06,.76,.06v.64h-5.45v-.64c.14-.01,.34-.03,.61-.06,.27-.03,.46-.07,.56-.11,.18-.08,.3-.19,.38-.34,.08-.15,.12-.34,.12-.57v-9.19c0-.21-.03-.4-.09-.56-.06-.17-.2-.29-.42-.38-.23-.08-.45-.13-.67-.16-.22-.03-.41-.06-.57-.07v-.64h5.8c1.18,0,2.14,.28,2.88,.86,.74,.57,1.11,1.33,1.11,2.28Zm-2.73,2.16c.2-.29,.33-.58,.4-.89,.07-.31,.1-.58,.1-.83,0-.34-.04-.69-.12-1.04-.08-.35-.22-.66-.41-.92-.21-.28-.48-.5-.82-.65-.34-.15-.76-.23-1.27-.23h-1.26v5.61h.91c.64,0,1.16-.1,1.56-.3,.4-.2,.7-.45,.91-.75Z"/><path class="b" d="M117.97,73.27l-.24,3.75h-10.55v-.64c.18-.01,.42-.04,.72-.08,.3-.04,.49-.08,.58-.12,.19-.09,.32-.21,.4-.35,.08-.14,.11-.33,.11-.55v-9.15c0-.2-.03-.37-.1-.52-.06-.15-.2-.28-.41-.37-.16-.08-.38-.15-.65-.21-.27-.06-.49-.09-.65-.11v-.64h9.83v3.06h-.66c-.12-.44-.38-.92-.78-1.42-.4-.5-.78-.78-1.13-.82-.19-.02-.41-.04-.66-.05-.26-.01-.55-.02-.88-.02h-2v5.02h1.43c.46,0,.79-.04,1-.13,.21-.08,.4-.23,.56-.43,.13-.17,.24-.4,.33-.69,.09-.29,.16-.56,.18-.82h.66v5h-.66c-.02-.29-.09-.59-.19-.91-.1-.32-.21-.55-.32-.7-.18-.23-.39-.38-.63-.46-.23-.07-.54-.11-.93-.11h-1.43v3.8c0,.38,.03,.68,.08,.9,.05,.22,.16,.39,.32,.5,.15,.11,.36,.19,.63,.22,.27,.03,.65,.05,1.14,.05h.78c.32,0,.59,0,.81-.04,.22-.02,.46-.07,.7-.13,.24-.06,.41-.14,.51-.25,.27-.29,.56-.72,.86-1.3,.3-.58,.49-1.01,.58-1.28h.66Z"/><path class="b" d="M131.08,77.01h-3.57c-.69-1.06-1.45-2.12-2.29-3.17-.84-1.05-1.72-2.06-2.64-3.05h-.23v4.42c0,.2,.04,.37,.11,.53,.08,.16,.21,.28,.4,.38,.09,.04,.27,.09,.52,.15,.26,.06,.47,.09,.64,.1v.64h-5.26v-.64c.14-.01,.34-.03,.6-.05,.26-.03,.45-.06,.56-.11,.18-.08,.31-.19,.39-.34,.08-.15,.12-.34,.12-.55v-9.18c0-.2-.03-.38-.11-.53-.07-.15-.2-.27-.41-.37-.16-.08-.35-.15-.58-.21-.22-.06-.41-.09-.58-.11v-.64h5.26v.64c-.16,0-.37,.03-.62,.08-.25,.05-.43,.09-.55,.14-.2,.07-.34,.19-.41,.36-.07,.17-.11,.35-.11,.55v4.4h.18c.54-.46,1.07-.93,1.59-1.42,.52-.5,.99-.99,1.42-1.48,.47-.55,.82-.98,1.04-1.31,.22-.33,.33-.62,.33-.87,0-.09-.06-.16-.17-.22-.11-.06-.24-.1-.38-.14-.17-.03-.32-.05-.45-.07-.13,0-.24-.02-.32-.02v-.64h4.77v.64s-.06,0-.12,0c-.06,0-.13,.01-.21,.02-.08,0-.17,.02-.25,.04-.08,.02-.19,.04-.32,.06-.21,.05-.42,.13-.65,.23-.22,.1-.41,.24-.55,.39-.61,.7-1.25,1.43-1.92,2.18-.67,.75-1.33,1.43-1.99,2.05,.91,1.03,1.66,1.91,2.26,2.65,.6,.74,1.23,1.53,1.9,2.37,.26,.32,.51,.58,.77,.77,.26,.19,.48,.34,.66,.43,.15,.08,.35,.14,.58,.18,.23,.04,.42,.07,.58,.07v.64Z"/><path class="b" d="M137.46,77.01h-5.74v-.64c.16-.01,.4-.03,.7-.05,.3-.03,.52-.06,.65-.11,.2-.08,.34-.18,.43-.32,.09-.13,.14-.32,.14-.56v-9.22c0-.21-.04-.38-.1-.52-.07-.14-.22-.26-.47-.36-.18-.07-.41-.14-.68-.2-.27-.06-.5-.1-.67-.11v-.64h5.74v.64c-.19,0-.41,.03-.67,.07-.25,.04-.48,.09-.67,.15-.23,.07-.38,.19-.46,.35-.08,.16-.12,.34-.12,.54v9.21c0,.2,.04,.37,.13,.53,.09,.15,.23,.27,.44,.36,.13,.05,.33,.1,.62,.16,.28,.06,.52,.09,.72,.09v.64Z"/><path class="b" d="M151.71,64.92c-.17,0-.43,.05-.78,.14-.35,.09-.6,.19-.75,.28-.22,.15-.36,.43-.44,.86-.08,.43-.11,.96-.11,1.62v9.33h-.79l-7.72-10.42v6.57c0,.74,.05,1.3,.14,1.69,.09,.4,.23,.68,.42,.84,.14,.13,.42,.26,.85,.37,.43,.11,.71,.17,.85,.18v.64h-5.21v-.64c.16-.01,.43-.07,.81-.17,.38-.11,.62-.2,.72-.28,.21-.17,.35-.42,.43-.77,.08-.35,.12-.93,.12-1.76v-6.27c0-.28-.05-.55-.14-.83-.1-.27-.22-.49-.38-.64-.21-.2-.51-.37-.87-.51-.37-.14-.66-.21-.89-.23v-.64h3.63l7.16,9.71v-6.06c0-.74-.05-1.31-.14-1.71-.09-.4-.23-.66-.41-.79-.17-.11-.44-.23-.82-.33-.38-.11-.67-.16-.86-.18v-.64h5.18v.64Z"/><path class="b" d="M165.06,71.91c-.15,.02-.34,.05-.58,.08-.25,.04-.44,.09-.59,.17-.18,.09-.31,.22-.38,.38-.08,.17-.11,.36-.11,.58v.99c0,.72,0,1.2,.01,1.46,0,.25,.02,.46,.03,.62-.79,.36-1.58,.64-2.37,.83-.79,.19-1.56,.29-2.32,.29-.81,0-1.59-.15-2.34-.46-.75-.31-1.41-.74-1.97-1.3-.57-.57-1.02-1.26-1.35-2.07-.34-.82-.5-1.72-.5-2.73s.16-1.87,.48-2.7c.32-.83,.77-1.55,1.35-2.16,.57-.6,1.24-1.06,2.03-1.4,.79-.33,1.63-.5,2.52-.5,.72,0,1.34,.09,1.87,.27,.53,.18,1,.39,1.4,.63l.37-.61h.72l.08,4.44h-.74c-.13-.49-.28-.98-.47-1.46-.18-.48-.42-.9-.71-1.29-.29-.38-.65-.68-1.07-.9-.42-.23-.92-.34-1.5-.34-.64,0-1.21,.13-1.71,.39-.5,.26-.94,.65-1.3,1.16-.36,.5-.64,1.12-.84,1.86-.2,.74-.3,1.57-.3,2.49,0,.81,.1,1.57,.29,2.29,.19,.72,.48,1.33,.85,1.86,.37,.53,.83,.95,1.39,1.26,.56,.31,1.19,.46,1.89,.46,.53,0,1-.08,1.44-.24,.43-.16,.74-.33,.92-.51,.04-.31,.07-.63,.08-.94,0-.32,0-.59,0-.81v-.7c0-.25-.04-.48-.1-.67-.07-.2-.21-.34-.43-.43-.2-.09-.46-.16-.8-.2-.34-.04-.6-.07-.79-.08v-.64h5.58v.64Z"/><path class="b" d="M183.37,64.92c-.17,0-.42,.04-.74,.11-.32,.06-.59,.16-.79,.29-.2,.14-.35,.42-.42,.85-.08,.43-.12,.96-.12,1.58v5.53c0,.7-.14,1.32-.44,1.83-.29,.52-.68,.95-1.16,1.28-.47,.32-.97,.55-1.5,.69-.52,.14-1.02,.21-1.5,.21-.77,0-1.45-.1-2.05-.3-.6-.2-1.1-.47-1.5-.81-.4-.34-.7-.73-.91-1.17-.2-.44-.3-.9-.3-1.38v-7.52c0-.21-.03-.38-.1-.52-.07-.14-.21-.27-.42-.39-.15-.08-.34-.15-.58-.2-.23-.05-.42-.08-.58-.09v-.64h5.26v.64c-.16,0-.37,.03-.62,.08-.25,.05-.43,.09-.55,.13-.2,.07-.33,.19-.4,.36-.07,.17-.1,.35-.1,.55v7.02c0,.34,.04,.7,.11,1.07,.07,.37,.22,.72,.44,1.04,.23,.33,.55,.6,.96,.81,.4,.21,.95,.31,1.66,.31,.66,0,1.21-.1,1.66-.31,.45-.21,.8-.49,1.06-.83,.25-.32,.42-.66,.52-1.01,.1-.35,.15-.71,.15-1.07v-5.21c0-.66-.05-1.21-.14-1.63-.1-.42-.24-.7-.42-.83-.21-.15-.5-.27-.86-.35-.36-.08-.64-.13-.83-.14v-.64h5.21v.64Z"/><path class="b" d="M197.69,64.92c-.17,0-.43,.05-.78,.14-.35,.09-.6,.19-.75,.28-.21,.15-.36,.43-.44,.86-.07,.43-.11,.96-.11,1.62v9.33h-.79l-7.72-10.42v6.57c0,.74,.05,1.3,.14,1.69,.09,.4,.23,.68,.43,.84,.13,.13,.42,.26,.84,.37,.43,.11,.71,.17,.85,.18v.64h-5.21v-.64c.16-.01,.43-.07,.81-.17,.38-.11,.62-.2,.71-.28,.21-.17,.35-.42,.43-.77,.07-.35,.12-.93,.12-1.76v-6.27c0-.28-.05-.55-.14-.83-.09-.27-.22-.49-.38-.64-.21-.2-.5-.37-.87-.51-.37-.14-.66-.21-.89-.23v-.64h3.63l7.16,9.71v-6.06c0-.74-.05-1.31-.14-1.71-.1-.4-.23-.66-.41-.79-.17-.11-.44-.23-.82-.33-.38-.11-.66-.16-.86-.18v-.64h5.18v.64Z"/><path class="b" d="M203.92,77.01h-5.74v-.64c.16-.01,.39-.03,.7-.05,.31-.03,.52-.06,.65-.11,.2-.08,.34-.18,.43-.32,.09-.13,.13-.32,.13-.56v-9.22c0-.21-.03-.38-.1-.52-.07-.14-.22-.26-.47-.36-.18-.07-.41-.14-.68-.2-.27-.06-.5-.1-.67-.11v-.64h5.74v.64c-.19,0-.41,.03-.66,.07-.26,.04-.48,.09-.67,.15-.23,.07-.38,.19-.46,.35-.08,.16-.12,.34-.12,.54v9.21c0,.2,.04,.37,.13,.53,.09,.15,.24,.27,.45,.36,.13,.05,.33,.1,.61,.16,.29,.06,.53,.09,.72,.09v.64Z"/><path class="b" d="M217.36,64.92c-.16,0-.34,.04-.57,.1-.22,.06-.4,.14-.55,.23-.21,.13-.37,.29-.49,.48-.12,.2-.24,.43-.36,.7-.4,.95-1,2.43-1.81,4.44-.8,2.01-1.63,4.11-2.48,6.29h-.75c-.86-2.31-1.69-4.54-2.49-6.69-.8-2.15-1.35-3.6-1.63-4.35-.07-.19-.17-.35-.29-.49-.12-.14-.28-.27-.47-.4-.16-.1-.34-.18-.54-.23-.2-.05-.38-.08-.54-.09v-.64h5.26v.64c-.45,.02-.82,.07-1.13,.13-.31,.07-.46,.18-.46,.35,0,.07,0,.15,.04,.23,.02,.09,.04,.16,.06,.22,.22,.59,.58,1.54,1.08,2.87,.5,1.33,1.2,3.22,2.12,5.66,.46-1.11,.98-2.42,1.57-3.92,.59-1.51,.99-2.54,1.2-3.11,.19-.54,.31-.92,.34-1.13,.03-.21,.05-.38,.05-.51,0-.14-.06-.25-.18-.35-.12-.09-.29-.17-.49-.24-.2-.06-.4-.11-.6-.14-.2-.03-.41-.05-.62-.07v-.64h4.74v.64Z"/><path class="b" d="M228.54,73.27l-.24,3.75h-10.55v-.64c.18-.01,.42-.04,.72-.08,.3-.04,.49-.08,.58-.12,.19-.09,.32-.21,.4-.35,.08-.14,.11-.33,.11-.55v-9.15c0-.2-.03-.37-.1-.52s-.2-.28-.41-.37c-.16-.08-.38-.15-.65-.21-.27-.06-.49-.09-.65-.11v-.64h9.83v3.06h-.66c-.12-.44-.38-.92-.77-1.42-.4-.5-.78-.78-1.13-.82-.18-.02-.41-.04-.66-.05-.26-.01-.55-.02-.88-.02h-2v5.02h1.43c.46,0,.79-.04,1-.13,.21-.08,.4-.23,.56-.43,.13-.17,.24-.4,.33-.69,.09-.29,.16-.56,.19-.82h.66v5h-.66c-.02-.29-.09-.59-.19-.91-.1-.32-.21-.55-.32-.7-.19-.23-.4-.38-.63-.46-.23-.07-.54-.11-.93-.11h-1.43v3.8c0,.38,.03,.68,.08,.9,.05,.22,.16,.39,.31,.5s.37,.19,.63,.22c.27,.03,.65,.05,1.14,.05h.78c.32,0,.59,0,.81-.04,.23-.02,.46-.07,.7-.13,.24-.06,.41-.14,.51-.25,.27-.29,.56-.72,.86-1.3,.3-.58,.49-1.01,.58-1.28h.66Z"/><path class="b" d="M242.27,77.01h-3.45c-.76-1.18-1.44-2.21-2.05-3.07-.61-.86-1.27-1.75-1.99-2.67h-1.31v4.01c0,.21,.03,.39,.1,.55,.07,.16,.2,.28,.42,.36,.11,.04,.29,.08,.56,.11,.27,.04,.5,.06,.68,.06v.64h-5.34v-.64c.14-.01,.35-.03,.61-.06,.27-.03,.45-.07,.56-.11,.17-.08,.3-.19,.38-.34,.08-.15,.12-.34,.12-.57v-9.2c0-.21-.03-.39-.09-.56-.06-.16-.2-.28-.41-.37-.15-.05-.34-.1-.57-.15-.23-.05-.44-.07-.6-.09v-.64h5.87c.54,0,1.04,.05,1.51,.17,.47,.11,.9,.29,1.28,.54,.37,.24,.66,.55,.89,.94,.22,.38,.33,.85,.33,1.4,0,.49-.08,.92-.23,1.3-.15,.38-.37,.71-.67,.98-.27,.26-.59,.48-.97,.67-.38,.19-.8,.35-1.25,.48,.63,.83,1.15,1.53,1.57,2.1,.41,.57,.92,1.26,1.53,2.07,.26,.36,.5,.62,.71,.79,.21,.17,.42,.31,.63,.41,.16,.08,.35,.14,.58,.18,.24,.04,.43,.07,.59,.07v.64Zm-4.71-9.48c0-.77-.22-1.38-.67-1.83-.45-.45-1.08-.68-1.89-.68h-1.53v5.45h1.18c.83,0,1.53-.26,2.08-.79,.55-.53,.83-1.25,.83-2.15Z"/><path class="b" d="M250.68,71.19c.27,.3,.47,.63,.6,.98,.13,.36,.19,.77,.19,1.25,0,1.13-.41,2.06-1.25,2.79-.83,.73-1.86,1.1-3.09,1.1-.57,0-1.13-.09-1.7-.29-.57-.19-1.06-.41-1.47-.66l-.39,.66h-.72l-.13-4.36h.72c.15,.54,.33,1.03,.53,1.47,.2,.43,.46,.84,.79,1.22,.31,.36,.68,.64,1.1,.85,.42,.21,.9,.32,1.45,.32,.41,0,.78-.05,1.08-.16,.31-.11,.56-.26,.75-.46,.19-.2,.33-.43,.43-.7,.09-.27,.14-.57,.14-.92,0-.51-.14-.98-.43-1.42-.29-.44-.71-.77-1.28-1-.39-.16-.83-.33-1.33-.51-.5-.19-.94-.37-1.3-.53-.72-.32-1.28-.75-1.67-1.27-.4-.53-.6-1.21-.6-2.06,0-.49,.1-.94,.3-1.36,.19-.42,.48-.79,.84-1.12,.35-.31,.75-.56,1.23-.73,.47-.18,.96-.27,1.48-.27,.58,0,1.11,.09,1.57,.27,.46,.18,.88,.39,1.26,.63l.37-.61h.72l.08,4.23h-.72c-.13-.48-.28-.95-.44-1.39-.16-.44-.38-.84-.64-1.2-.26-.34-.57-.62-.94-.83-.37-.21-.83-.31-1.36-.31-.57,0-1.05,.18-1.45,.55-.4,.36-.6,.81-.6,1.34s.13,1.01,.39,1.37c.26,.36,.63,.66,1.12,.89,.43,.21,.86,.39,1.29,.54,.42,.15,.83,.32,1.22,.49,.36,.16,.7,.33,1.03,.53,.33,.2,.62,.43,.87,.7Z"/><path class="b" d="M258.61,77.01h-5.74v-.64c.16-.01,.4-.03,.7-.05,.3-.03,.52-.06,.65-.11,.2-.08,.34-.18,.43-.32,.09-.13,.13-.32,.13-.56v-9.22c0-.21-.03-.38-.1-.52-.07-.14-.22-.26-.47-.36-.18-.07-.41-.14-.68-.2-.27-.06-.5-.1-.67-.11v-.64h5.74v.64c-.19,0-.41,.03-.66,.07-.26,.04-.48,.09-.67,.15-.23,.07-.38,.19-.46,.35-.08,.16-.12,.34-.12,.54v9.21c0,.2,.04,.37,.13,.53,.09,.15,.24,.27,.45,.36,.13,.05,.33,.1,.62,.16,.28,.06,.52,.09,.72,.09v.64Z"/><path class="b" d="M270.58,67.74h-.61c-.05-.22-.15-.48-.29-.77-.14-.3-.3-.58-.47-.84-.18-.27-.38-.52-.59-.73-.21-.21-.42-.33-.62-.36-.18-.02-.42-.04-.7-.05-.28-.01-.54-.02-.78-.02h-.52v10.19c0,.2,.04,.38,.12,.54,.09,.16,.23,.29,.44,.38,.11,.04,.33,.1,.68,.17,.34,.07,.61,.11,.8,.12v.64h-6.01v-.64c.17-.01,.42-.04,.76-.07,.34-.04,.58-.08,.71-.13,.2-.08,.34-.19,.43-.34,.09-.15,.14-.34,.14-.59v-10.27h-.52c-.19,0-.42,0-.69,.01-.28,0-.54,.03-.79,.06-.2,.03-.4,.14-.61,.36-.21,.21-.41,.45-.59,.73-.18,.27-.34,.56-.47,.86-.14,.3-.23,.55-.29,.75h-.64v-3.46h11.11v3.46Z"/><path class="b" d="M283.58,64.92c-.1,0-.26,.05-.48,.12-.22,.07-.38,.15-.47,.22-.23,.14-.39,.26-.47,.33-.08,.08-.25,.28-.49,.61-.46,.66-.89,1.33-1.29,2-.4,.67-.89,1.53-1.48,2.58-.22,.38-.37,.69-.44,.92-.07,.23-.11,.57-.11,1.01v2.43c0,.21,.04,.4,.13,.56,.09,.16,.23,.29,.44,.38,.12,.05,.35,.1,.67,.17,.32,.07,.58,.11,.78,.11v.64h-5.95v-.64c.17-.01,.42-.03,.75-.07,.34-.03,.57-.08,.7-.13,.21-.09,.36-.21,.44-.37,.08-.16,.12-.35,.12-.57v-3.09c0-.09-.06-.27-.17-.52-.12-.26-.26-.54-.42-.85-.36-.7-.76-1.44-1.19-2.25-.43-.81-.81-1.5-1.13-2.07-.2-.34-.37-.6-.53-.77-.15-.17-.33-.33-.52-.46-.14-.09-.31-.16-.51-.21-.2-.05-.38-.07-.54-.09v-.64h5.43v.64c-.61,.01-1.04,.05-1.29,.12-.25,.07-.38,.17-.38,.31,0,.04,.02,.1,.05,.19,.04,.09,.09,.2,.15,.34,.08,.15,.17,.33,.27,.53,.11,.2,.21,.39,.3,.58,.28,.53,.56,1.06,.85,1.59,.29,.53,.67,1.22,1.14,2.06,.94-1.51,1.66-2.7,2.16-3.54,.5-.85,.74-1.35,.74-1.52,0-.14-.05-.25-.15-.33-.1-.08-.23-.15-.4-.2-.18-.05-.36-.08-.57-.09-.2-.01-.39-.03-.56-.05v-.64h4.42v.64Z"/></g><g><g><path class="b" d="M138.41,38.66c-.36,.04-.73,.07-1.09,.11-1.02,.3-2.12,.71-3.28,1.09-1.18,.39-2.89,1.04-4.15,.11-.09-.11-.04-.03-.11-.22,1.13-1.21,1.1-1.93,2.84-2.73,.03-1.2,.49-2.62-.11-3.39,.13-1.79,2.24-.92,3.83-1.31,.97-.24,2.16-.59,2.95-1.09,.93-.59,1.87-1.87,2.3-2.95,.17-.45-.03-1.36,.22-1.75v-.88c-.08-.16-2.79-1.05-3.17-1.31-.28-.19-.97-.77-1.09-1.09-.1-.29,.02-.58-.11-.77-.13-.27-.25-.25-.44-.44-.55,.05-.71,.24-.95,.45-.07,.07-.21,.12-.26,.21-.05,.09,0,.18,0,.28v2.67c-.26,.59-1.45,.93-1.97,1.31-.44,.47-.88,.95-1.31,1.42-.65-.06-.7-.28-1.09-.55-.95-4.42-1.36-8.11-4.37-10.38-.73-.55-1.29-1.64-2.19-1.97-.32,.87-.73,1.78-.98,2.67-.06,.21,.03,.38-.03,.59-.54,2.03-.96,4.1-1.51,6.25-.13,.51-.75,3.26-.66,3.72,.47,2.18,1.08,4.96,1.64,7,.26,.95,.06,1.64,.33,2.51,.49,1.59,1.9,5.69,3.06,6.45,1.3,.86,3.45,1.26,5.14,.55,.52-.22,.97-.96,1.31-1.09h1.64c1.6-.44,3.21-.87,4.81-1.31,.57-.24,2-1,2.4-1.42,.58-.59,.62-1.76,1.31-2.4,.01-.79-.07-1.11-.33-1.53-2.02,.05-3.2,.68-4.59,1.2Z"/><path class="b" d="M114.25,24.34c-.01-1.46,.03-3.12-.22-4.27-.21-.95,.22-2.16-.11-2.95-1-2.36-5.29-4.46-7.65-5.68-.91-.47-.92-1.38-2.19-1.64-.29-.06-.88,.58-.87,.77-.06,1.51,1.08,2.1,1.86,3.06,.47,.59,.75,1.26,1.2,1.86,.7,.93,1.88,1.74,2.3,2.95,.67,1.95,.69,6.88,.22,9.07v2.19c-.07,.84-.15,1.68-.22,2.52-.61-.23-1.01-.84-1.64-1.1-.47-.07-.95-.15-1.42-.22-.44-.27-.73-.78-1.31-.99-.66-.23-1.27,.03-1.97-.22-.76-.27-1-.87-2.19-.87-.24,.04-.7,.4-.66,.55,.16,.93,.94,1.39,1.2,2.19v.87c.18,.69,.38,1.64,.54,2.41,.28,1.25-.53,1.96-.77,2.73-.96,3.13-1.52,6.29-3.97,7.91-.09,.06-.16,.13-.23,.24-.06,.1-.07,.37-.07,.43-.06,1.8-.34,5.31,1.32,5.86,.06,.04,.16,.11,.16,.11,.17,.08,1.65,.07,1.91,0,.59-.3,1.64-1.83,2.29-2.3,.99-.71,2.06-1.17,3.06-1.86,.18-.22,.36-.44,.55-.66,1-.75,1.98-1.52,2.84-2.41,.11-.05,.26-.07,.33,0,.08,.37,.24,1.19,0,1.53-.02,1.88-.22,3.22,.55,4.37,.43,.01,1.06,.06,1.31-.11,.86-.32,1.28-1.77,1.64-2.62,.94-2.21,1.16-4.81,1.75-7.43,.04-.91,.07-1.82,.11-2.73,.54-2.46,.44-5.48,.44-8.31,.04-1.13,.07-2.26,.11-3.39-.11-.54-.21-1.2-.22-1.86Zm-5.69,15.85v1.42c-.21,.45-1.22,.81-1.64,1.09-.37,.25-.79,.69-1.2,.87-.77,.34-1.42,.36-2.08,.77-.59,.37-1.26,.92-1.86,1.31-.45,.29-2.01,.92-2.73,.44-.11-.04-.22-.07-.33-.11,.08-1.18,.93-1.71,1.42-2.52,.96-1.57,2.21-2.85,3.17-4.37,.07-.26,.15-.51,.22-.77,.35-.54,1.06-.99,1.31-1.64,1.91,.04,2.93-.93,3.28-2.41,.28,.02,.37,.05,.55,.11,.03,1.22,.04,2.64,0,3.83-.02,.59,.14,1.58-.11,1.97Z"/></g><g><path class="b" d="M254.08,19.64c.35,.47,.97,.84,1.31,1.31,1.15,1.6,1.45,4.9,2.08,7,1.96-.02,2.8-1.72,3.72-2.84,0-2.71-2.78-6.88-4.37-7.98-.92-.63-2.02-.91-2.95-1.53-.99-.65-1.53-1.6-2.73-2.08-.16-.05-.52,.33-.55,.44v1.75c.4,.33,.8,.66,1.2,.98,.78,1.03,1.53,1.92,2.3,2.95Z"/><path class="b" d="M277.47,22.7c1.7-2.2,3.97-4.23,5.03-7,.3-.79,1.62-2.72,.77-3.83-.38-.56-1.43-.23-2.19-.44-.34-.09-.59-.46-.87-.55-.5-.15-1.02,.23-1.31,.33-1.38,.44-2.57,.58-3.83,1.09-.56,.23-2.16,1.19-2.84,.77-.11-.03-.22-.07-.33-.11,.12-2.1,1.6-3.34,2.3-5.03,.2-.49,.83-1.8,.44-2.41-.06-.98-1.08-1.66-1.64-2.19-.18-.15-1,.12-.98,.44,.04,2.78-1.13,5.8-2.73,6.89-.51,.35-.96,.2-1.64,.44-1.08,.38-2.23,1.47-3.5,.54-.65,0-.74,.1-1.09,.33,.12,1.09,.76,2,1.64,2.29,.22,.12,1.01,.01,1.53,0-.02,.85-.69,1.59-1.2,1.97,0,.37,.03,.65,.11,.88,1.18,.22,1.4-.4,2.51-.44-.18,1.24-1.18,1.83-1.75,2.73-.74,.15-1.83,.25-2.51,.33-.06,0-.12,.08-.11,.11,.02,.83,.34,1.12,.87,1.42-.3,1.14-1.22,1.94-1.86,2.84-.25,.35-.98,.84-.55,1.53,.15,.26,.33,.27,.66,.33,1.1-1.06,2.97-1.56,3.5-3.17,1.74,.11,1.73,.53,2.73,1.2-.05,.62-.34,1.25-.66,1.64,0,.42,.02,.83,.11,1.09,1.3-.06,3.26-1.78,4.15-1.2h.22c-.16,.74-.98,.76-1.53,1.09-1.16,.72-2.55,1.19-3.83,1.86-1.73,.91-3.65,1.93-5.25,2.95-.47,.15-.95,.29-1.42,.44-2.6,1.54-5.07,3.45-7.76,4.92-.07,.19-.02,.11-.11,.22,0,.34,.04,.56,.11,.77,3.33,.7,5.99-.84,8.31-1.75,3.12-1.22,6.08-3.26,8.64-5.14,.83-.61,1.43-1.63,2.29-2.19,.67-.44,1.27-.61,1.86-1.09h.55c-.19,.67-.66,.93-.99,1.42-.11,.29-.22,.58-.33,.87-.58,.55-1.17,1.1-1.75,1.64-.28,.37-.52,.93-.87,1.2-.88,.67-1.85,1.32-2.51,2.19-.09,.15,.06,.74,.11,1.09,1.74-.14,2.76-1.27,4.04-1.86,.79-.36,1.65-.43,2.41-.87,.51-.29,.76-.88,1.2-1.2,2.13-1.58,4.05-2.81,3.61-6.67-.54-.19-1.32-.22-1.75-.55h-2.3c.37-1.27,1.61-1.29,2.3-2.19Zm-3.5-1.42c-.42,.56-.74,1.24-1.09,1.86-.29-.02-.37-.05-.55-.11-.32-1.61-.44-2.84-.98-4.05-.38-.07-.58-.13-.88,.11-.64,.54-.18,1.97-.98,2.62-.32,.33-1.15-.9-1.42-1.09,.2-2.33,2.45-4.08,3.61-5.58,2.1,.04,3.61,1.08,5.58,1.2-.06,2.59-2.14,3.51-3.28,5.03Z"/><path class="b" d="M250.58,31.34c.28,.65,.98,1.38,1.2,2.08,.46,.09,.69,.04,1.2,0,.85-.88,1.37-1.67,1.64-3.17,.23-1.29-2.41-4.51-3.28-4.81-.22-.15-.71-.12-1.09-.11-.17,.75,.25,3.02,.33,3.83v2.19Z"/><path class="b" d="M269.71,37.68c-.84,1.1-4.32,1.04-5.79,1.64-2.02,.83-4.18,1.51-6.23,2.4-1.36,.59-2.78,1.41-4.15,1.97-.36,.07-.73,.15-1.09,.22-.59,.24-1.22,.86-1.75,1.09-.51,.04-1.02,.07-1.53,.11-.55,.25-.82,.78-1.2,1.2,.03,1.96,1.04,2.52,1.53,3.62,.1,.22,0,.45,.22,.75,.17,.18,.66,.37,.98,.44,.77,.16,1.87-.54,2.41-.77,2.05-.88,3.57-2.39,5.36-3.5,.64-.4,1.62-.87,2.3-1.09,.79-.26,1.38-.03,2.08-.33,1.27-.53,.73-1.39,2.62-.76,.08,.29,.26,.53,.33,.76,.21,.76-.25,1.69-.11,2.3,.15,.65,.36,.79,.33,1.64-.26,.28-.35,.76-.66,.98-.93,.7-2.45,.98-3.72,1.31-.87,.23-1.95-.37-2.62,.11h-.22c.02,.37,.05,.56,.22,.76,.32,.99,.93,.66,1.97,.98,1.01,.32,2.09,1.75,3.83,.76,.37-.21,.5-.73,.98-.87,.86-.25,1.64,.16,2.19-.33,.52-.26,.61-.91,.87-1.42,.23-.45,.63-1.13,.77-1.64,.2-.75-.19-1.43-.33-1.86-.07-.44-.15-.87-.22-1.31-.41-1.01-1.07-1.57-1.09-3.06-.01-.17,.18-.38,.33-.44,1.22-.29,2.42-.58,4.05-.54,.52-.53,1.24-.88,1.64-1.53,.26-.42,.27-1.02,.55-1.42,0-1.05-.37-1.16-.76-1.75-1.58-.02-2.54-.45-4.04-.44Z"/></g><g><path class="b" d="M230.13,23.91c.31-.47,.32-.88,.77-1.2,.34-.23-.1-1.46-.33-1.53-4.09-.92-4.44,2.1-6.56,3.72-.97,.74-2.07,1.22-3.06,1.97h-.22c-.4-2.18-.11-5.05-.11-7.43v-2.84c.08-.2,.45-.44,.55-.66,.38-.87,.21-2.26-.22-2.95-.59-.96-1.82-1.21-2.73-1.86-.48-.34-.84-.96-1.42-1.2-.89-.37-1.87-.02-2.62-.55-.49,.08-.65,.24-.98,.44-.96,2.51,1.4,6.05,2.08,7.87,.59,1.58,.61,6.49,.22,8.31-.3,1.37,.18,3.42-.55,4.37-.42,.57-4,1.78-4.92,2.19-.77,.34-1.67,.81-2.51,1.09-.94,.31-1.83,.4-2.62,.88-1.22,.73-3.16,2.06-4.48,2.51-.4,.04-.8,.07-1.2,.11-.56,.18-1.28,.5-1.86,.66-.33,.09-.78,.13-.87,.11-.4-.38-.91-.96-1.2-1.42-.16-.2-.34-.33-.47-.24-.08,0-.17,.1-.19,.35-.09,3.4-.34,4.11,1.2,6.45,3.19,.67,5.48-.89,7.54-2.29,.91-.62,1.8-1,2.73-1.64,.69-.48,1.22-1.33,1.97-1.75,.33-.07,.65-.14,.98-.22,1.43-.57,2.91-1.43,4.81-1.53-.02,3.61-3.11,7.3-5.36,8.75-.34,.22-.7,.48-1.1,.65-.43,.19-.83,.38-1.19,.55-.29,.04-.58,.07-.87,.11-.53,.26-1.25,.72-1.75,1.09-.73,.55-.64,1.07-1.09,1.75v.22c5.84-.04,9.45-2.59,12.68-5.25,1.21-1,2.72-1.87,3.39-3.39,.81-1.82,1.1-4.06,1.64-6.01,.11-.76,.22-1.53,.33-2.29,.32-.57,1.92-1.43,2.51-1.86,.58-.42,1.06-1.1,1.64-1.53,1.17-.86,2.34-1.64,3.5-2.52,.62-.47,1.54-1.31,1.97-1.97Z"/><path class="b" d="M230.36,40.41c-1.08-.84-1.53-2.09-3.5-2.08-.1,.1-.19,.15-.33,.22-.06,2.58,.28,2.94,.98,4.81,.07,.33,.14,.66,.22,.99,.26,.5,1.28,1.66,.65,2.62,.12,1,1.8,1.36,2.95,.98,1.23-.4,2.51-1.26,3.28-2.19-.01-2.83-2.62-4.07-4.26-5.36Z"/></g><g><path class="b" d="M168.59,6.52c.15,.11,.29,.22,.44,.33,.4,.58,.88,1.53,1.09,2.19,.45,1.38,.57,3.7-.44,4.37-.15,.08-.03,1.1,.33,1.09,1.74-.21,3.49-1.43,4.16-2.73,3.02,.08,4.69-.79,4.48-3.83-.29-.31-.43-.84-.77-1.09-.9-.68-1.92-1.37-2.84-1.97-.43-.28-.98-.28-1.42-.55-1.55-.94-2.8-1.91-5.36-1.86-1.26,1.5-.48,1.46,.11,2.73,.07,.44,.15,.87,.22,1.31Z"/><path class="b" d="M166.18,26.53c.82,.21,2.73-.21,3.39-.44,1.83-.62,3.77-3.87,5.36-5.03,1.06-.77,2.26-1.91,3.5-2.4,.47-.07,.95-.15,1.42-.22,.47-.51,.95-1.02,1.42-1.53-.03-.63-.18-1.11-.44-1.09h-1.31c-.57,.37-1.62,.23-2.3,.44-1.24,.38-2.54,.95-3.72,1.32-.33,.03-.66,.07-.98,.11-3.62,1.36-7.38,2.92-10.82,4.37-.23,.54-.71,1.37-.22,1.97,.38,1.09,3.45,2.19,4.7,2.51Z"/><path class="b" d="M177.11,36.26c-1.34,0-2.54-.28-3.72,.11-.56,.18-.82,.64-1.42,.76,.12-.71,1.5-1.56,1.97-2.08,.38-.42,.75-.97,1.2-1.31,.38-.29,.91-.5,1.2-.87,.19-.25,.31-.68,.55-.88,.18-.04,.37-.07,.55-.11,.28-.25,.35-.75,.66-.98,.92-.69,1.8-.84,2.41-1.86,.12-.21-.1-.67-.33-.87-.72-.58-4.29-1.05-5.58-.66-.65,.2-1.55,.59-2.08,.98-.18,.25-.37,.51-.55,.77-.55,.07-1.09,.14-1.64,.22-.66,.4-1.22,1.19-1.86,1.64-1.32,.93-2.73,1.71-4.15,2.51-.62,.36-1.34-1.12-1.75-1.42-.27-.2-.62-.23-.87-.44-.25,.02-.31,.02-.44,.11-.25,.08-.25,.11-.44,.22-.05,.78,.3,1.71,.11,2.51-.43,1.8-1.22,5.11-.55,7.21,.11,.34,.51,.76,.66,1.09,.18,.41,.11,.81,.33,1.2,.31,.56,1.07,.74,1.31,1.42,.95-.19,2.61-3.2,3.35-4.37,0,0,0-.01,0-.01,.16-.28,.14-.46,.14-.65v-.03h0v-2.7c.36-.09,1.09-.23,1.42-.44,.52,0,.69,.06,.98,.22-.03,.34-1.25,3.31-1.42,3.5,.08,.76,.58,1.02,1.2,1.2-.19,1.49-1.85,1.81-2.84,2.51-1.18,.83-2.47,1.75-3.72,2.52-.49,.3-1.04,.35-1.53,.66-.3,.19-.57,.58-.87,.76-.52,.31-1.06,.33-1.53,.66-.23,.17-.33,.56-.65,.66-.45,.13-.81-.27-1.09-.33-.68-.15-1.15,.32-1.64,.44-.13,2.69,1.04,5.44,4.04,5.46,1.5-1.59,3.14-2.93,4.48-4.7,.47-.4,.95-.8,1.42-1.2,.32-.48,.41-.9,.77-1.31,.13-.15,.37-.09,.54-.22,.4-.44,.8-.87,1.2-1.31,.37-.27,.72-.29,.99-.66,.23,.04,.21,.03,.33,.11,.29,.38,.28,1.02,.55,1.42,.02,.98,.09,2.1-.55,2.41-.33,.07-.65,.15-.98,.22-.27,.2-.36,.66-.65,.87v.66c.08,.15,2,.78,2.29,.98,.23,.16,.68,.71,.77,.98v.99c.13,.3,.67,.67,.87,.98,.35,.08,1.09,.23,1.42,0,.11-.04,.22-.07,.33-.11-.05-3.35-.25-6.42-1.2-8.97-.32-.86-1.53-2.45-.76-3.61,0-1.62,1.12-1.17,2.08-1.75,1.34-.81,2.79-1.59,4.04-2.51,.49-.36,.7-.97,1.09-1.42-.08-.53-.3-.76-.44-1.2Z"/><path class="b" d="M183.46,43.58c-1.14-1.57-2.36-3.01-5.14-2.95-.2,.13-.63,.12-.99,.11-.55,2.27-.48,4.09,.66,5.79,.29,.26,.58,.51,.87,.77,.64,.96,1.01,1.9,2.19,2.3,1.19,.77,2.61-.72,3.17-1.09,.16-.64,.7-2.71,.33-3.28-.05-.92-.69-1.09-1.09-1.64Z"/></g></g></g></svg>