<?xml version="1.0" encoding="UTF-8"?><svg id="a" xmlns="http://www.w3.org/2000/svg" viewBox="0 0 240 198.71"><defs><style>.b{fill:#94070a;}</style></defs><path class="b" d="M6.39,5.06V0H23.89V6.92h-1.28L6.39,5.06ZM25.28,76.06l16.22,1.86v5.06H6.39v-5.06l16.22-1.86h2.67Zm-7.24-37.63c0-12.77,0-25.66-.37-38.44h12.45c-.37,12.52-.37,25.42-.37,38.44v7.56c0,12.51,0,24.21,.37,36.98h-12.45c.37-12.52,.37-25.41,.37-38.44v-6.11Zm18.22,11.78h-12.37v-5.77h14.13c15.01,0,20.93-8.03,20.93-19.79S52.29,5.79,37.53,5.79h-13.63V0h15.87c20.88,0,31.4,10.14,31.4,24.66s-9.52,25.55-34.91,25.55Z"/><path class="b" d="M78.22,5.06V0h34.97V5.06l-16.19,1.86h-2.55l-16.22-1.86Zm18.77,71.01l16.12,1.86v5.06h-34.89v-5.06l16.22-1.86h2.55Zm-7.12-37.63c0-12.77,0-25.66-.37-38.44h12.05c-.37,12.52-.37,25.42-.37,38.44v9.2c0,9.68,0,22.57,.37,35.35h-12.05c.37-12.52,.37-25.41,.37-38.44v-6.11Zm5.62,14.69L138.91,0h7.54l-50.96,61.22v-8.1Zm23.22-24.25l30.02,54.1h-12.28l-24.55-45.96,6.81-8.15Zm4.21,49.05l14.98-1.86h1.92l14.96,1.86v5.06h-31.86v-5.06Zm1.47-72.86V0h28.53V5.06l-13.68,1.86-2.55,.6-12.3-2.45Z"/><path class="b" d="M158.99,5.06V0h35.04V5.06l-16.25,1.86h-2.54l-16.25-1.86Zm42.71,70.99c14.08,0,21.24-8.03,21.24-30.03V0h6.31V49.06c0,26.06-12.63,35.81-29.58,35.81-18,0-30.22-9.98-30.22-33.1v-13.4c0-12.74,0-25.61-.37-38.36h12.45c-.37,12.5-.37,25.38-.37,38.36v9.78c0,21.19,7.94,27.9,20.53,27.9ZM223.87,6.88l-13.61-1.82V0h29.75V5.06l-13.58,1.82h-2.55Z"/><path d="M78.7,155.67c0,28.58-18.86,43.04-39.33,43.04S0,184.56,0,155.67s19.03-43.04,39.37-43.04,39.33,14.14,39.33,43.04Zm-39.33,35.85c12.47,0,17.38-15.29,17.38-35.85s-4.91-35.95-17.38-35.95-17.41,15.48-17.41,35.95,4.93,35.85,17.41,35.85Z"/><path d="M132.38,179.47c0-6.54-3.23-9.51-10.7-12.83l-5.25-2.39c-14.62-6.66-23.03-14.03-23.03-27.75,0-14.88,12.02-23.92,30.81-23.92,8.84,0,17.39,2.33,23.43,6.3l-1.01,17.38h-11.38l-3.02-18.73,9.98,3.55v6.2c-6.61-4.79-11.29-7.34-17.68-7.34-7.08,0-12.78,4.48-12.78,11.28s3.92,9.97,11.27,13.28l5.83,2.67c15.83,7.13,22.33,13.96,22.33,26.51,0,14.63-11.21,24.99-32.4,24.99-9.3,0-19.78-2.08-26.92-6.48l.75-18.44h11.55l3.23,20.08-9.58-3.03v-5.95c7.86,4.23,12.97,6.45,20.96,6.45,8.82,0,13.6-5.1,13.6-11.82Z"/><path d="M228.66,184.52v6.37l-8.31,1.83,4.17-19.42h9.44l-.49,19.05c-6.64,3.67-15.39,6.31-26.03,6.31-23.89,0-43.07-14.08-43.07-43.04s20.65-43.04,43.93-43.04c9.38,0,16.93,2.1,24.29,6.13l.49,19.23h-9.44l-4.27-19.61,8.32,1.92v6.85c-5.91-5.32-10.88-7.51-16.48-7.51-13.25,0-24.89,10.78-24.89,36.12s11.17,35.85,24.29,35.85c6.17,0,12.23-2.55,18.04-7.04Z"/></svg>