<svg width="182" height="61" viewBox="0 0 182 61" fill="none" xmlns="http://www.w3.org/2000/svg">
<path d="M12.72 24.44C16.4 24.44 19.08 25.24 20.76 26.84C22.4667 28.4133 23.32 30.5867 23.32 33.36C23.32 34.6133 23.1333 35.8133 22.76 36.96C22.3867 38.08 21.76 39.0933 20.88 40C20.0267 40.88 18.8933 41.5733 17.48 42.08C16.0667 42.5867 14.32 42.84 12.24 42.84H9.64V53H3.6V24.44H12.72ZM12.4 29.4H9.64V37.88H11.64C12.7867 37.88 13.7733 37.7333 14.6 37.44C15.4267 37.1467 16.0667 36.68 16.52 36.04C16.9733 35.4 17.2 34.5733 17.2 33.56C17.2 32.1467 16.8133 31.1067 16.04 30.44C15.2667 29.7467 14.0533 29.4 12.4 29.4ZM51.6772 53H44.7972L37.3172 40.96L34.7572 42.8V53H28.7172V24.44H34.7572V37.52C35.1572 36.96 35.5572 36.4 35.9572 35.84C36.3572 35.28 36.7572 34.72 37.1572 34.16L44.8772 24.44H51.5972L41.6372 37.08L51.6772 53ZM78.5197 42.92C78.5197 44.8933 78.0797 46.68 77.1997 48.28C76.3464 49.8533 75.0397 51.1067 73.2797 52.04C71.5464 52.9467 69.3464 53.4 66.6797 53.4C62.893 53.4 60.013 52.44 58.0397 50.52C56.0664 48.5733 55.0797 46.0133 55.0797 42.84V24.44H61.1197V41.92C61.1197 44.2667 61.5997 45.92 62.5597 46.88C63.5197 47.84 64.9464 48.32 66.8397 48.32C68.173 48.32 69.253 48.0933 70.0797 47.64C70.9064 47.1867 71.5064 46.48 71.8797 45.52C72.2797 44.56 72.4797 43.3467 72.4797 41.88V24.44H78.5197V42.92Z" fill="#AE2121"/>
<path d="M154.307 45.08C154.307 46.76 153.894 48.2267 153.067 49.48C152.241 50.7333 151.041 51.7067 149.467 52.4C147.921 53.0667 146.027 53.4 143.787 53.4C142.801 53.4 141.827 53.3333 140.867 53.2C139.934 53.0667 139.027 52.88 138.147 52.64C137.294 52.3733 136.481 52.0533 135.707 51.68V46.04C137.067 46.6267 138.467 47.1733 139.907 47.68C141.374 48.16 142.827 48.4 144.267 48.4C145.254 48.4 146.041 48.2667 146.627 48C147.241 47.7333 147.681 47.3733 147.947 46.92C148.241 46.4667 148.387 45.9467 148.387 45.36C148.387 44.64 148.134 44.0267 147.627 43.52C147.147 43.0133 146.494 42.5467 145.667 42.12C144.841 41.6667 143.894 41.1867 142.827 40.68C142.161 40.36 141.441 39.9867 140.667 39.56C139.894 39.1067 139.147 38.56 138.427 37.92C137.734 37.2533 137.161 36.4533 136.707 35.52C136.254 34.5867 136.027 33.4667 136.027 32.16C136.027 30.4533 136.414 29 137.187 27.8C137.987 26.5733 139.107 25.64 140.547 25C142.014 24.36 143.734 24.04 145.707 24.04C147.201 24.04 148.614 24.2133 149.947 24.56C151.307 24.9067 152.721 25.4 154.187 26.04L152.227 30.76C150.921 30.2267 149.747 29.8133 148.707 29.52C147.667 29.2267 146.601 29.08 145.507 29.08C144.761 29.08 144.121 29.2 143.587 29.44C143.054 29.68 142.641 30.0133 142.347 30.44C142.081 30.8667 141.947 31.3733 141.947 31.96C141.947 32.6267 142.147 33.2 142.547 33.68C142.947 34.1333 143.547 34.5733 144.347 35C145.147 35.4267 146.147 35.9333 147.347 36.52C148.814 37.2133 150.054 37.9333 151.067 38.68C152.107 39.4267 152.907 40.3067 153.467 41.32C154.027 42.3333 154.307 43.5867 154.307 45.08ZM171.618 29.08C170.472 29.08 169.445 29.3067 168.538 29.76C167.658 30.2133 166.912 30.8667 166.298 31.72C165.685 32.5467 165.218 33.56 164.898 34.76C164.605 35.96 164.458 37.3067 164.458 38.8C164.458 40.8267 164.698 42.56 165.178 44C165.685 45.4133 166.472 46.4933 167.538 47.24C168.605 47.9867 169.965 48.36 171.618 48.36C172.792 48.36 173.952 48.2267 175.098 47.96C176.272 47.6933 177.538 47.32 178.898 46.84V51.92C177.645 52.4267 176.405 52.8 175.178 53.04C173.952 53.28 172.578 53.4 171.058 53.4C168.125 53.4 165.698 52.8 163.778 51.6C161.885 50.3733 160.485 48.6667 159.578 46.48C158.672 44.2667 158.218 41.6933 158.218 38.76C158.218 36.6 158.512 34.6267 159.098 32.84C159.685 31.0267 160.538 29.4667 161.658 28.16C162.805 26.8533 164.205 25.84 165.858 25.12C167.538 24.4 169.458 24.04 171.618 24.04C173.032 24.04 174.445 24.2267 175.858 24.6C177.298 24.9467 178.672 25.4267 179.978 26.04L178.018 30.96C176.952 30.4533 175.872 30.0133 174.778 29.64C173.712 29.2667 172.658 29.08 171.618 29.08Z" fill="black"/>
<path d="M67 41V34.4399C67 32.7181 68.1575 28.1165 72.3333 26.1752C76.7778 24.109 74.1111 25.3487 76.7778 24.109C78.2337 23.4321 83 22.0428 83 17.9104C83 13.7781 83 16.5662 83 14.5" stroke="#64748B" stroke-width="3" stroke-linecap="round" stroke-linejoin="round"/>
<path d="M67 28.5C67 28.5 67 25.5 67 24C67 22.5 66 21 64 20.5C62 20 57 19 57 19" stroke="#94A3B8" stroke-width="2" stroke-linecap="round" stroke-linejoin="round" stroke-dasharray="4 4"/>
<path d="M67 41L67 10" stroke="#334155" stroke-width="3" stroke-linecap="round" stroke-linejoin="round"/>
<circle cx="54.5" cy="18.5" r="2.5" stroke="#94A3B8" stroke-width="2"/>
<circle cx="83" cy="11" r="3" stroke="#64748B" stroke-width="2"/>
<circle cx="67" cy="5" r="4" stroke="#334155" stroke-width="2"/>
<rect x="84" y="36" width="15" height="6" fill="black"/>
<rect x="118" y="36" width="15" height="6" fill="black"/>
<circle cx="108.5" cy="38.5" r="12" stroke="black" stroke-width="5"/>
</svg>
